<mxfile host="app.diagrams.net" agent="Mozilla/5.0 (Windows NT 10.0; Win64; x64) AppleWebKit/537.36 (KHTML, like Gecko) Chrome/138.0.0.0 Safari/537.36" version="28.0.6" pages="4">
  <diagram id="fgAivIi__8a-MT-PAjYB" name="Trang-1">
    <mxGraphModel dx="1107" dy="679" grid="1" gridSize="10" guides="1" tooltips="1" connect="1" arrows="1" fold="1" page="1" pageScale="1" pageWidth="827" pageHeight="1169" math="0" shadow="0">
      <root>
        <mxCell id="0" />
        <mxCell id="1" parent="0" />
        <mxCell id="S49XvplFFmqanMfkmk6P-1" value="Student" style="shape=table;startSize=30;container=1;collapsible=1;childLayout=tableLayout;fixedRows=1;rowLines=0;fontStyle=1;align=center;resizeLast=1;html=1;" parent="1" vertex="1">
          <mxGeometry x="40" y="80" width="180" height="150" as="geometry" />
        </mxCell>
        <mxCell id="S49XvplFFmqanMfkmk6P-2" value="" style="shape=tableRow;horizontal=0;startSize=0;swimlaneHead=0;swimlaneBody=0;fillColor=none;collapsible=0;dropTarget=0;points=[[0,0.5],[1,0.5]];portConstraint=eastwest;top=0;left=0;right=0;bottom=1;" parent="S49XvplFFmqanMfkmk6P-1" vertex="1">
          <mxGeometry y="30" width="180" height="30" as="geometry" />
        </mxCell>
        <mxCell id="S49XvplFFmqanMfkmk6P-3" value="PK" style="shape=partialRectangle;connectable=0;fillColor=none;top=0;left=0;bottom=0;right=0;fontStyle=1;overflow=hidden;whiteSpace=wrap;html=1;" parent="S49XvplFFmqanMfkmk6P-2" vertex="1">
          <mxGeometry width="30" height="30" as="geometry">
            <mxRectangle width="30" height="30" as="alternateBounds" />
          </mxGeometry>
        </mxCell>
        <mxCell id="S49XvplFFmqanMfkmk6P-4" value="StudentID" style="shape=partialRectangle;connectable=0;fillColor=none;top=0;left=0;bottom=0;right=0;align=left;spacingLeft=6;fontStyle=5;overflow=hidden;whiteSpace=wrap;html=1;" parent="S49XvplFFmqanMfkmk6P-2" vertex="1">
          <mxGeometry x="30" width="150" height="30" as="geometry">
            <mxRectangle width="150" height="30" as="alternateBounds" />
          </mxGeometry>
        </mxCell>
        <mxCell id="S49XvplFFmqanMfkmk6P-5" value="" style="shape=tableRow;horizontal=0;startSize=0;swimlaneHead=0;swimlaneBody=0;fillColor=none;collapsible=0;dropTarget=0;points=[[0,0.5],[1,0.5]];portConstraint=eastwest;top=0;left=0;right=0;bottom=0;" parent="S49XvplFFmqanMfkmk6P-1" vertex="1">
          <mxGeometry y="60" width="180" height="30" as="geometry" />
        </mxCell>
        <mxCell id="S49XvplFFmqanMfkmk6P-6" value="" style="shape=partialRectangle;connectable=0;fillColor=none;top=0;left=0;bottom=0;right=0;editable=1;overflow=hidden;whiteSpace=wrap;html=1;" parent="S49XvplFFmqanMfkmk6P-5" vertex="1">
          <mxGeometry width="30" height="30" as="geometry">
            <mxRectangle width="30" height="30" as="alternateBounds" />
          </mxGeometry>
        </mxCell>
        <mxCell id="S49XvplFFmqanMfkmk6P-7" value="Email" style="shape=partialRectangle;connectable=0;fillColor=none;top=0;left=0;bottom=0;right=0;align=left;spacingLeft=6;overflow=hidden;whiteSpace=wrap;html=1;" parent="S49XvplFFmqanMfkmk6P-5" vertex="1">
          <mxGeometry x="30" width="150" height="30" as="geometry">
            <mxRectangle width="150" height="30" as="alternateBounds" />
          </mxGeometry>
        </mxCell>
        <mxCell id="S49XvplFFmqanMfkmk6P-8" value="" style="shape=tableRow;horizontal=0;startSize=0;swimlaneHead=0;swimlaneBody=0;fillColor=none;collapsible=0;dropTarget=0;points=[[0,0.5],[1,0.5]];portConstraint=eastwest;top=0;left=0;right=0;bottom=0;" parent="S49XvplFFmqanMfkmk6P-1" vertex="1">
          <mxGeometry y="90" width="180" height="30" as="geometry" />
        </mxCell>
        <mxCell id="S49XvplFFmqanMfkmk6P-9" value="" style="shape=partialRectangle;connectable=0;fillColor=none;top=0;left=0;bottom=0;right=0;editable=1;overflow=hidden;whiteSpace=wrap;html=1;" parent="S49XvplFFmqanMfkmk6P-8" vertex="1">
          <mxGeometry width="30" height="30" as="geometry">
            <mxRectangle width="30" height="30" as="alternateBounds" />
          </mxGeometry>
        </mxCell>
        <mxCell id="S49XvplFFmqanMfkmk6P-10" value="Password" style="shape=partialRectangle;connectable=0;fillColor=none;top=0;left=0;bottom=0;right=0;align=left;spacingLeft=6;overflow=hidden;whiteSpace=wrap;html=1;" parent="S49XvplFFmqanMfkmk6P-8" vertex="1">
          <mxGeometry x="30" width="150" height="30" as="geometry">
            <mxRectangle width="150" height="30" as="alternateBounds" />
          </mxGeometry>
        </mxCell>
        <mxCell id="S49XvplFFmqanMfkmk6P-11" value="" style="shape=tableRow;horizontal=0;startSize=0;swimlaneHead=0;swimlaneBody=0;fillColor=none;collapsible=0;dropTarget=0;points=[[0,0.5],[1,0.5]];portConstraint=eastwest;top=0;left=0;right=0;bottom=0;" parent="S49XvplFFmqanMfkmk6P-1" vertex="1">
          <mxGeometry y="120" width="180" height="30" as="geometry" />
        </mxCell>
        <mxCell id="S49XvplFFmqanMfkmk6P-12" value="FK" style="shape=partialRectangle;connectable=0;fillColor=none;top=0;left=0;bottom=0;right=0;editable=1;overflow=hidden;whiteSpace=wrap;html=1;" parent="S49XvplFFmqanMfkmk6P-11" vertex="1">
          <mxGeometry width="30" height="30" as="geometry">
            <mxRectangle width="30" height="30" as="alternateBounds" />
          </mxGeometry>
        </mxCell>
        <mxCell id="S49XvplFFmqanMfkmk6P-13" value="&lt;span style=&quot;font-weight: 700; text-align: center; text-wrap-mode: nowrap; text-decoration-line: underline;&quot;&gt;RegisterID&lt;/span&gt;" style="shape=partialRectangle;connectable=0;fillColor=none;top=0;left=0;bottom=0;right=0;align=left;spacingLeft=6;overflow=hidden;whiteSpace=wrap;html=1;" parent="S49XvplFFmqanMfkmk6P-11" vertex="1">
          <mxGeometry x="30" width="150" height="30" as="geometry">
            <mxRectangle width="150" height="30" as="alternateBounds" />
          </mxGeometry>
        </mxCell>
        <mxCell id="S49XvplFFmqanMfkmk6P-14" value="Lecturer" style="shape=table;startSize=30;container=1;collapsible=1;childLayout=tableLayout;fixedRows=1;rowLines=0;fontStyle=1;align=center;resizeLast=1;html=1;" parent="1" vertex="1">
          <mxGeometry x="440" y="80" width="180" height="150" as="geometry" />
        </mxCell>
        <mxCell id="S49XvplFFmqanMfkmk6P-15" value="" style="shape=tableRow;horizontal=0;startSize=0;swimlaneHead=0;swimlaneBody=0;fillColor=none;collapsible=0;dropTarget=0;points=[[0,0.5],[1,0.5]];portConstraint=eastwest;top=0;left=0;right=0;bottom=1;" parent="S49XvplFFmqanMfkmk6P-14" vertex="1">
          <mxGeometry y="30" width="180" height="30" as="geometry" />
        </mxCell>
        <mxCell id="S49XvplFFmqanMfkmk6P-16" value="PK" style="shape=partialRectangle;connectable=0;fillColor=none;top=0;left=0;bottom=0;right=0;fontStyle=1;overflow=hidden;whiteSpace=wrap;html=1;" parent="S49XvplFFmqanMfkmk6P-15" vertex="1">
          <mxGeometry width="30" height="30" as="geometry">
            <mxRectangle width="30" height="30" as="alternateBounds" />
          </mxGeometry>
        </mxCell>
        <mxCell id="S49XvplFFmqanMfkmk6P-17" value="LecturerID" style="shape=partialRectangle;connectable=0;fillColor=none;top=0;left=0;bottom=0;right=0;align=left;spacingLeft=6;fontStyle=5;overflow=hidden;whiteSpace=wrap;html=1;" parent="S49XvplFFmqanMfkmk6P-15" vertex="1">
          <mxGeometry x="30" width="150" height="30" as="geometry">
            <mxRectangle width="150" height="30" as="alternateBounds" />
          </mxGeometry>
        </mxCell>
        <mxCell id="S49XvplFFmqanMfkmk6P-18" value="" style="shape=tableRow;horizontal=0;startSize=0;swimlaneHead=0;swimlaneBody=0;fillColor=none;collapsible=0;dropTarget=0;points=[[0,0.5],[1,0.5]];portConstraint=eastwest;top=0;left=0;right=0;bottom=0;" parent="S49XvplFFmqanMfkmk6P-14" vertex="1">
          <mxGeometry y="60" width="180" height="30" as="geometry" />
        </mxCell>
        <mxCell id="S49XvplFFmqanMfkmk6P-19" value="" style="shape=partialRectangle;connectable=0;fillColor=none;top=0;left=0;bottom=0;right=0;editable=1;overflow=hidden;whiteSpace=wrap;html=1;" parent="S49XvplFFmqanMfkmk6P-18" vertex="1">
          <mxGeometry width="30" height="30" as="geometry">
            <mxRectangle width="30" height="30" as="alternateBounds" />
          </mxGeometry>
        </mxCell>
        <mxCell id="S49XvplFFmqanMfkmk6P-20" value="Email" style="shape=partialRectangle;connectable=0;fillColor=none;top=0;left=0;bottom=0;right=0;align=left;spacingLeft=6;overflow=hidden;whiteSpace=wrap;html=1;" parent="S49XvplFFmqanMfkmk6P-18" vertex="1">
          <mxGeometry x="30" width="150" height="30" as="geometry">
            <mxRectangle width="150" height="30" as="alternateBounds" />
          </mxGeometry>
        </mxCell>
        <mxCell id="S49XvplFFmqanMfkmk6P-21" value="" style="shape=tableRow;horizontal=0;startSize=0;swimlaneHead=0;swimlaneBody=0;fillColor=none;collapsible=0;dropTarget=0;points=[[0,0.5],[1,0.5]];portConstraint=eastwest;top=0;left=0;right=0;bottom=0;" parent="S49XvplFFmqanMfkmk6P-14" vertex="1">
          <mxGeometry y="90" width="180" height="30" as="geometry" />
        </mxCell>
        <mxCell id="S49XvplFFmqanMfkmk6P-22" value="" style="shape=partialRectangle;connectable=0;fillColor=none;top=0;left=0;bottom=0;right=0;editable=1;overflow=hidden;whiteSpace=wrap;html=1;" parent="S49XvplFFmqanMfkmk6P-21" vertex="1">
          <mxGeometry width="30" height="30" as="geometry">
            <mxRectangle width="30" height="30" as="alternateBounds" />
          </mxGeometry>
        </mxCell>
        <mxCell id="S49XvplFFmqanMfkmk6P-23" value="Password" style="shape=partialRectangle;connectable=0;fillColor=none;top=0;left=0;bottom=0;right=0;align=left;spacingLeft=6;overflow=hidden;whiteSpace=wrap;html=1;" parent="S49XvplFFmqanMfkmk6P-21" vertex="1">
          <mxGeometry x="30" width="150" height="30" as="geometry">
            <mxRectangle width="150" height="30" as="alternateBounds" />
          </mxGeometry>
        </mxCell>
        <mxCell id="S49XvplFFmqanMfkmk6P-24" value="" style="shape=tableRow;horizontal=0;startSize=0;swimlaneHead=0;swimlaneBody=0;fillColor=none;collapsible=0;dropTarget=0;points=[[0,0.5],[1,0.5]];portConstraint=eastwest;top=0;left=0;right=0;bottom=0;" parent="S49XvplFFmqanMfkmk6P-14" vertex="1">
          <mxGeometry y="120" width="180" height="30" as="geometry" />
        </mxCell>
        <mxCell id="S49XvplFFmqanMfkmk6P-25" value="FK" style="shape=partialRectangle;connectable=0;fillColor=none;top=0;left=0;bottom=0;right=0;editable=1;overflow=hidden;whiteSpace=wrap;html=1;" parent="S49XvplFFmqanMfkmk6P-24" vertex="1">
          <mxGeometry width="30" height="30" as="geometry">
            <mxRectangle width="30" height="30" as="alternateBounds" />
          </mxGeometry>
        </mxCell>
        <mxCell id="S49XvplFFmqanMfkmk6P-26" value="CourseID" style="shape=partialRectangle;connectable=0;fillColor=none;top=0;left=0;bottom=0;right=0;align=left;spacingLeft=6;overflow=hidden;whiteSpace=wrap;html=1;" parent="S49XvplFFmqanMfkmk6P-24" vertex="1">
          <mxGeometry x="30" width="150" height="30" as="geometry">
            <mxRectangle width="150" height="30" as="alternateBounds" />
          </mxGeometry>
        </mxCell>
        <mxCell id="S49XvplFFmqanMfkmk6P-27" value="Course" style="shape=table;startSize=30;container=1;collapsible=1;childLayout=tableLayout;fixedRows=1;rowLines=0;fontStyle=1;align=center;resizeLast=1;html=1;" parent="1" vertex="1">
          <mxGeometry x="310" y="280" width="180" height="150" as="geometry" />
        </mxCell>
        <mxCell id="S49XvplFFmqanMfkmk6P-28" value="" style="shape=tableRow;horizontal=0;startSize=0;swimlaneHead=0;swimlaneBody=0;fillColor=none;collapsible=0;dropTarget=0;points=[[0,0.5],[1,0.5]];portConstraint=eastwest;top=0;left=0;right=0;bottom=1;" parent="S49XvplFFmqanMfkmk6P-27" vertex="1">
          <mxGeometry y="30" width="180" height="30" as="geometry" />
        </mxCell>
        <mxCell id="S49XvplFFmqanMfkmk6P-29" value="PK" style="shape=partialRectangle;connectable=0;fillColor=none;top=0;left=0;bottom=0;right=0;fontStyle=1;overflow=hidden;whiteSpace=wrap;html=1;" parent="S49XvplFFmqanMfkmk6P-28" vertex="1">
          <mxGeometry width="30" height="30" as="geometry">
            <mxRectangle width="30" height="30" as="alternateBounds" />
          </mxGeometry>
        </mxCell>
        <mxCell id="S49XvplFFmqanMfkmk6P-30" value="CourseID" style="shape=partialRectangle;connectable=0;fillColor=none;top=0;left=0;bottom=0;right=0;align=left;spacingLeft=6;fontStyle=5;overflow=hidden;whiteSpace=wrap;html=1;" parent="S49XvplFFmqanMfkmk6P-28" vertex="1">
          <mxGeometry x="30" width="150" height="30" as="geometry">
            <mxRectangle width="150" height="30" as="alternateBounds" />
          </mxGeometry>
        </mxCell>
        <mxCell id="S49XvplFFmqanMfkmk6P-31" value="" style="shape=tableRow;horizontal=0;startSize=0;swimlaneHead=0;swimlaneBody=0;fillColor=none;collapsible=0;dropTarget=0;points=[[0,0.5],[1,0.5]];portConstraint=eastwest;top=0;left=0;right=0;bottom=0;" parent="S49XvplFFmqanMfkmk6P-27" vertex="1">
          <mxGeometry y="60" width="180" height="30" as="geometry" />
        </mxCell>
        <mxCell id="S49XvplFFmqanMfkmk6P-32" value="FK" style="shape=partialRectangle;connectable=0;fillColor=none;top=0;left=0;bottom=0;right=0;editable=1;overflow=hidden;whiteSpace=wrap;html=1;" parent="S49XvplFFmqanMfkmk6P-31" vertex="1">
          <mxGeometry width="30" height="30" as="geometry">
            <mxRectangle width="30" height="30" as="alternateBounds" />
          </mxGeometry>
        </mxCell>
        <mxCell id="S49XvplFFmqanMfkmk6P-33" value="&lt;span style=&quot;font-weight: 700; text-decoration-line: underline;&quot;&gt;StudentID&lt;/span&gt;" style="shape=partialRectangle;connectable=0;fillColor=none;top=0;left=0;bottom=0;right=0;align=left;spacingLeft=6;overflow=hidden;whiteSpace=wrap;html=1;" parent="S49XvplFFmqanMfkmk6P-31" vertex="1">
          <mxGeometry x="30" width="150" height="30" as="geometry">
            <mxRectangle width="150" height="30" as="alternateBounds" />
          </mxGeometry>
        </mxCell>
        <mxCell id="S49XvplFFmqanMfkmk6P-34" value="" style="shape=tableRow;horizontal=0;startSize=0;swimlaneHead=0;swimlaneBody=0;fillColor=none;collapsible=0;dropTarget=0;points=[[0,0.5],[1,0.5]];portConstraint=eastwest;top=0;left=0;right=0;bottom=0;" parent="S49XvplFFmqanMfkmk6P-27" vertex="1">
          <mxGeometry y="90" width="180" height="30" as="geometry" />
        </mxCell>
        <mxCell id="S49XvplFFmqanMfkmk6P-35" value="FK" style="shape=partialRectangle;connectable=0;fillColor=none;top=0;left=0;bottom=0;right=0;editable=1;overflow=hidden;whiteSpace=wrap;html=1;" parent="S49XvplFFmqanMfkmk6P-34" vertex="1">
          <mxGeometry width="30" height="30" as="geometry">
            <mxRectangle width="30" height="30" as="alternateBounds" />
          </mxGeometry>
        </mxCell>
        <mxCell id="S49XvplFFmqanMfkmk6P-36" value="&lt;span style=&quot;font-weight: 700; text-decoration-line: underline;&quot;&gt;LecturerID&lt;/span&gt;" style="shape=partialRectangle;connectable=0;fillColor=none;top=0;left=0;bottom=0;right=0;align=left;spacingLeft=6;overflow=hidden;whiteSpace=wrap;html=1;" parent="S49XvplFFmqanMfkmk6P-34" vertex="1">
          <mxGeometry x="30" width="150" height="30" as="geometry">
            <mxRectangle width="150" height="30" as="alternateBounds" />
          </mxGeometry>
        </mxCell>
        <mxCell id="S49XvplFFmqanMfkmk6P-37" value="" style="shape=tableRow;horizontal=0;startSize=0;swimlaneHead=0;swimlaneBody=0;fillColor=none;collapsible=0;dropTarget=0;points=[[0,0.5],[1,0.5]];portConstraint=eastwest;top=0;left=0;right=0;bottom=0;" parent="S49XvplFFmqanMfkmk6P-27" vertex="1">
          <mxGeometry y="120" width="180" height="30" as="geometry" />
        </mxCell>
        <mxCell id="S49XvplFFmqanMfkmk6P-38" value="FK" style="shape=partialRectangle;connectable=0;fillColor=none;top=0;left=0;bottom=0;right=0;editable=1;overflow=hidden;whiteSpace=wrap;html=1;" parent="S49XvplFFmqanMfkmk6P-37" vertex="1">
          <mxGeometry width="30" height="30" as="geometry">
            <mxRectangle width="30" height="30" as="alternateBounds" />
          </mxGeometry>
        </mxCell>
        <mxCell id="S49XvplFFmqanMfkmk6P-39" value="&lt;span style=&quot;font-weight: 700; text-align: center; text-wrap-mode: nowrap; text-decoration-line: underline;&quot;&gt;DocumentID&lt;/span&gt;" style="shape=partialRectangle;connectable=0;fillColor=none;top=0;left=0;bottom=0;right=0;align=left;spacingLeft=6;overflow=hidden;whiteSpace=wrap;html=1;" parent="S49XvplFFmqanMfkmk6P-37" vertex="1">
          <mxGeometry x="30" width="150" height="30" as="geometry">
            <mxRectangle width="150" height="30" as="alternateBounds" />
          </mxGeometry>
        </mxCell>
        <mxCell id="S49XvplFFmqanMfkmk6P-40" value="Forum" style="shape=table;startSize=30;container=1;collapsible=1;childLayout=tableLayout;fixedRows=1;rowLines=0;fontStyle=1;align=center;resizeLast=1;html=1;" parent="1" vertex="1">
          <mxGeometry x="600" y="350" width="180" height="120" as="geometry" />
        </mxCell>
        <mxCell id="S49XvplFFmqanMfkmk6P-41" value="" style="shape=tableRow;horizontal=0;startSize=0;swimlaneHead=0;swimlaneBody=0;fillColor=none;collapsible=0;dropTarget=0;points=[[0,0.5],[1,0.5]];portConstraint=eastwest;top=0;left=0;right=0;bottom=1;" parent="S49XvplFFmqanMfkmk6P-40" vertex="1">
          <mxGeometry y="30" width="180" height="30" as="geometry" />
        </mxCell>
        <mxCell id="S49XvplFFmqanMfkmk6P-42" value="PK" style="shape=partialRectangle;connectable=0;fillColor=none;top=0;left=0;bottom=0;right=0;fontStyle=1;overflow=hidden;whiteSpace=wrap;html=1;" parent="S49XvplFFmqanMfkmk6P-41" vertex="1">
          <mxGeometry width="30" height="30" as="geometry">
            <mxRectangle width="30" height="30" as="alternateBounds" />
          </mxGeometry>
        </mxCell>
        <mxCell id="S49XvplFFmqanMfkmk6P-43" value="ForumID" style="shape=partialRectangle;connectable=0;fillColor=none;top=0;left=0;bottom=0;right=0;align=left;spacingLeft=6;fontStyle=5;overflow=hidden;whiteSpace=wrap;html=1;" parent="S49XvplFFmqanMfkmk6P-41" vertex="1">
          <mxGeometry x="30" width="150" height="30" as="geometry">
            <mxRectangle width="150" height="30" as="alternateBounds" />
          </mxGeometry>
        </mxCell>
        <mxCell id="S49XvplFFmqanMfkmk6P-44" value="" style="shape=tableRow;horizontal=0;startSize=0;swimlaneHead=0;swimlaneBody=0;fillColor=none;collapsible=0;dropTarget=0;points=[[0,0.5],[1,0.5]];portConstraint=eastwest;top=0;left=0;right=0;bottom=0;" parent="S49XvplFFmqanMfkmk6P-40" vertex="1">
          <mxGeometry y="60" width="180" height="30" as="geometry" />
        </mxCell>
        <mxCell id="S49XvplFFmqanMfkmk6P-45" value="FK" style="shape=partialRectangle;connectable=0;fillColor=none;top=0;left=0;bottom=0;right=0;editable=1;overflow=hidden;whiteSpace=wrap;html=1;" parent="S49XvplFFmqanMfkmk6P-44" vertex="1">
          <mxGeometry width="30" height="30" as="geometry">
            <mxRectangle width="30" height="30" as="alternateBounds" />
          </mxGeometry>
        </mxCell>
        <mxCell id="S49XvplFFmqanMfkmk6P-46" value="&lt;span style=&quot;font-weight: 700; text-decoration-line: underline;&quot;&gt;CourseID&lt;/span&gt;" style="shape=partialRectangle;connectable=0;fillColor=none;top=0;left=0;bottom=0;right=0;align=left;spacingLeft=6;overflow=hidden;whiteSpace=wrap;html=1;" parent="S49XvplFFmqanMfkmk6P-44" vertex="1">
          <mxGeometry x="30" width="150" height="30" as="geometry">
            <mxRectangle width="150" height="30" as="alternateBounds" />
          </mxGeometry>
        </mxCell>
        <mxCell id="S49XvplFFmqanMfkmk6P-47" value="" style="shape=tableRow;horizontal=0;startSize=0;swimlaneHead=0;swimlaneBody=0;fillColor=none;collapsible=0;dropTarget=0;points=[[0,0.5],[1,0.5]];portConstraint=eastwest;top=0;left=0;right=0;bottom=0;" parent="S49XvplFFmqanMfkmk6P-40" vertex="1">
          <mxGeometry y="90" width="180" height="30" as="geometry" />
        </mxCell>
        <mxCell id="S49XvplFFmqanMfkmk6P-48" value="FK" style="shape=partialRectangle;connectable=0;fillColor=none;top=0;left=0;bottom=0;right=0;editable=1;overflow=hidden;whiteSpace=wrap;html=1;" parent="S49XvplFFmqanMfkmk6P-47" vertex="1">
          <mxGeometry width="30" height="30" as="geometry">
            <mxRectangle width="30" height="30" as="alternateBounds" />
          </mxGeometry>
        </mxCell>
        <mxCell id="S49XvplFFmqanMfkmk6P-49" value="&lt;span style=&quot;font-weight: 700; text-align: center; text-wrap-mode: nowrap; text-decoration-line: underline;&quot;&gt;ArticleID&lt;/span&gt;" style="shape=partialRectangle;connectable=0;fillColor=none;top=0;left=0;bottom=0;right=0;align=left;spacingLeft=6;overflow=hidden;whiteSpace=wrap;html=1;" parent="S49XvplFFmqanMfkmk6P-47" vertex="1">
          <mxGeometry x="30" width="150" height="30" as="geometry">
            <mxRectangle width="150" height="30" as="alternateBounds" />
          </mxGeometry>
        </mxCell>
        <mxCell id="S49XvplFFmqanMfkmk6P-53" value="Register" style="shape=table;startSize=30;container=1;collapsible=1;childLayout=tableLayout;fixedRows=1;rowLines=0;fontStyle=1;align=center;resizeLast=1;html=1;" parent="1" vertex="1">
          <mxGeometry x="40" y="320" width="180" height="120" as="geometry" />
        </mxCell>
        <mxCell id="S49XvplFFmqanMfkmk6P-54" value="" style="shape=tableRow;horizontal=0;startSize=0;swimlaneHead=0;swimlaneBody=0;fillColor=none;collapsible=0;dropTarget=0;points=[[0,0.5],[1,0.5]];portConstraint=eastwest;top=0;left=0;right=0;bottom=1;" parent="S49XvplFFmqanMfkmk6P-53" vertex="1">
          <mxGeometry y="30" width="180" height="30" as="geometry" />
        </mxCell>
        <mxCell id="S49XvplFFmqanMfkmk6P-55" value="PK" style="shape=partialRectangle;connectable=0;fillColor=none;top=0;left=0;bottom=0;right=0;fontStyle=1;overflow=hidden;whiteSpace=wrap;html=1;" parent="S49XvplFFmqanMfkmk6P-54" vertex="1">
          <mxGeometry width="30" height="30" as="geometry">
            <mxRectangle width="30" height="30" as="alternateBounds" />
          </mxGeometry>
        </mxCell>
        <mxCell id="S49XvplFFmqanMfkmk6P-56" value="&lt;div style=&quot;text-align: center;&quot;&gt;&lt;span style=&quot;text-wrap-mode: nowrap;&quot;&gt;RegisterID&lt;/span&gt;&lt;/div&gt;" style="shape=partialRectangle;connectable=0;fillColor=none;top=0;left=0;bottom=0;right=0;align=left;spacingLeft=6;fontStyle=5;overflow=hidden;whiteSpace=wrap;html=1;" parent="S49XvplFFmqanMfkmk6P-54" vertex="1">
          <mxGeometry x="30" width="150" height="30" as="geometry">
            <mxRectangle width="150" height="30" as="alternateBounds" />
          </mxGeometry>
        </mxCell>
        <mxCell id="S49XvplFFmqanMfkmk6P-57" value="" style="shape=tableRow;horizontal=0;startSize=0;swimlaneHead=0;swimlaneBody=0;fillColor=none;collapsible=0;dropTarget=0;points=[[0,0.5],[1,0.5]];portConstraint=eastwest;top=0;left=0;right=0;bottom=0;" parent="S49XvplFFmqanMfkmk6P-53" vertex="1">
          <mxGeometry y="60" width="180" height="30" as="geometry" />
        </mxCell>
        <mxCell id="S49XvplFFmqanMfkmk6P-58" value="FK" style="shape=partialRectangle;connectable=0;fillColor=none;top=0;left=0;bottom=0;right=0;editable=1;overflow=hidden;whiteSpace=wrap;html=1;" parent="S49XvplFFmqanMfkmk6P-57" vertex="1">
          <mxGeometry width="30" height="30" as="geometry">
            <mxRectangle width="30" height="30" as="alternateBounds" />
          </mxGeometry>
        </mxCell>
        <mxCell id="S49XvplFFmqanMfkmk6P-59" value="&lt;span style=&quot;font-weight: 700; text-decoration-line: underline;&quot;&gt;StudentID&lt;/span&gt;" style="shape=partialRectangle;connectable=0;fillColor=none;top=0;left=0;bottom=0;right=0;align=left;spacingLeft=6;overflow=hidden;whiteSpace=wrap;html=1;" parent="S49XvplFFmqanMfkmk6P-57" vertex="1">
          <mxGeometry x="30" width="150" height="30" as="geometry">
            <mxRectangle width="150" height="30" as="alternateBounds" />
          </mxGeometry>
        </mxCell>
        <mxCell id="S49XvplFFmqanMfkmk6P-60" value="" style="shape=tableRow;horizontal=0;startSize=0;swimlaneHead=0;swimlaneBody=0;fillColor=none;collapsible=0;dropTarget=0;points=[[0,0.5],[1,0.5]];portConstraint=eastwest;top=0;left=0;right=0;bottom=0;" parent="S49XvplFFmqanMfkmk6P-53" vertex="1">
          <mxGeometry y="90" width="180" height="30" as="geometry" />
        </mxCell>
        <mxCell id="S49XvplFFmqanMfkmk6P-61" value="FK" style="shape=partialRectangle;connectable=0;fillColor=none;top=0;left=0;bottom=0;right=0;editable=1;overflow=hidden;whiteSpace=wrap;html=1;" parent="S49XvplFFmqanMfkmk6P-60" vertex="1">
          <mxGeometry width="30" height="30" as="geometry">
            <mxRectangle width="30" height="30" as="alternateBounds" />
          </mxGeometry>
        </mxCell>
        <mxCell id="S49XvplFFmqanMfkmk6P-62" value="&lt;span style=&quot;font-weight: 700; text-decoration-line: underline;&quot;&gt;CourseID&lt;/span&gt;" style="shape=partialRectangle;connectable=0;fillColor=none;top=0;left=0;bottom=0;right=0;align=left;spacingLeft=6;overflow=hidden;whiteSpace=wrap;html=1;" parent="S49XvplFFmqanMfkmk6P-60" vertex="1">
          <mxGeometry x="30" width="150" height="30" as="geometry">
            <mxRectangle width="150" height="30" as="alternateBounds" />
          </mxGeometry>
        </mxCell>
        <mxCell id="S49XvplFFmqanMfkmk6P-66" value="Article" style="shape=table;startSize=30;container=1;collapsible=1;childLayout=tableLayout;fixedRows=1;rowLines=0;fontStyle=1;align=center;resizeLast=1;html=1;" parent="1" vertex="1">
          <mxGeometry x="390" y="510" width="180" height="150" as="geometry" />
        </mxCell>
        <mxCell id="S49XvplFFmqanMfkmk6P-67" value="" style="shape=tableRow;horizontal=0;startSize=0;swimlaneHead=0;swimlaneBody=0;fillColor=none;collapsible=0;dropTarget=0;points=[[0,0.5],[1,0.5]];portConstraint=eastwest;top=0;left=0;right=0;bottom=1;" parent="S49XvplFFmqanMfkmk6P-66" vertex="1">
          <mxGeometry y="30" width="180" height="30" as="geometry" />
        </mxCell>
        <mxCell id="S49XvplFFmqanMfkmk6P-68" value="PK" style="shape=partialRectangle;connectable=0;fillColor=none;top=0;left=0;bottom=0;right=0;fontStyle=1;overflow=hidden;whiteSpace=wrap;html=1;" parent="S49XvplFFmqanMfkmk6P-67" vertex="1">
          <mxGeometry width="30" height="30" as="geometry">
            <mxRectangle width="30" height="30" as="alternateBounds" />
          </mxGeometry>
        </mxCell>
        <mxCell id="S49XvplFFmqanMfkmk6P-69" value="&lt;div style=&quot;text-align: center;&quot;&gt;&lt;span style=&quot;text-wrap-mode: nowrap;&quot;&gt;ArticleID&lt;/span&gt;&lt;/div&gt;" style="shape=partialRectangle;connectable=0;fillColor=none;top=0;left=0;bottom=0;right=0;align=left;spacingLeft=6;fontStyle=5;overflow=hidden;whiteSpace=wrap;html=1;" parent="S49XvplFFmqanMfkmk6P-67" vertex="1">
          <mxGeometry x="30" width="150" height="30" as="geometry">
            <mxRectangle width="150" height="30" as="alternateBounds" />
          </mxGeometry>
        </mxCell>
        <mxCell id="S49XvplFFmqanMfkmk6P-70" value="" style="shape=tableRow;horizontal=0;startSize=0;swimlaneHead=0;swimlaneBody=0;fillColor=none;collapsible=0;dropTarget=0;points=[[0,0.5],[1,0.5]];portConstraint=eastwest;top=0;left=0;right=0;bottom=0;" parent="S49XvplFFmqanMfkmk6P-66" vertex="1">
          <mxGeometry y="60" width="180" height="30" as="geometry" />
        </mxCell>
        <mxCell id="S49XvplFFmqanMfkmk6P-71" value="FK" style="shape=partialRectangle;connectable=0;fillColor=none;top=0;left=0;bottom=0;right=0;editable=1;overflow=hidden;whiteSpace=wrap;html=1;" parent="S49XvplFFmqanMfkmk6P-70" vertex="1">
          <mxGeometry width="30" height="30" as="geometry">
            <mxRectangle width="30" height="30" as="alternateBounds" />
          </mxGeometry>
        </mxCell>
        <mxCell id="S49XvplFFmqanMfkmk6P-72" value="&lt;span style=&quot;font-weight: 700; text-decoration-line: underline;&quot;&gt;StudentID&lt;/span&gt;" style="shape=partialRectangle;connectable=0;fillColor=none;top=0;left=0;bottom=0;right=0;align=left;spacingLeft=6;overflow=hidden;whiteSpace=wrap;html=1;" parent="S49XvplFFmqanMfkmk6P-70" vertex="1">
          <mxGeometry x="30" width="150" height="30" as="geometry">
            <mxRectangle width="150" height="30" as="alternateBounds" />
          </mxGeometry>
        </mxCell>
        <mxCell id="S49XvplFFmqanMfkmk6P-73" value="" style="shape=tableRow;horizontal=0;startSize=0;swimlaneHead=0;swimlaneBody=0;fillColor=none;collapsible=0;dropTarget=0;points=[[0,0.5],[1,0.5]];portConstraint=eastwest;top=0;left=0;right=0;bottom=0;" parent="S49XvplFFmqanMfkmk6P-66" vertex="1">
          <mxGeometry y="90" width="180" height="30" as="geometry" />
        </mxCell>
        <mxCell id="S49XvplFFmqanMfkmk6P-74" value="FK" style="shape=partialRectangle;connectable=0;fillColor=none;top=0;left=0;bottom=0;right=0;editable=1;overflow=hidden;whiteSpace=wrap;html=1;" parent="S49XvplFFmqanMfkmk6P-73" vertex="1">
          <mxGeometry width="30" height="30" as="geometry">
            <mxRectangle width="30" height="30" as="alternateBounds" />
          </mxGeometry>
        </mxCell>
        <mxCell id="S49XvplFFmqanMfkmk6P-75" value="&lt;span style=&quot;font-weight: 700; text-decoration-line: underline;&quot;&gt;LecturerID&lt;/span&gt;" style="shape=partialRectangle;connectable=0;fillColor=none;top=0;left=0;bottom=0;right=0;align=left;spacingLeft=6;overflow=hidden;whiteSpace=wrap;html=1;" parent="S49XvplFFmqanMfkmk6P-73" vertex="1">
          <mxGeometry x="30" width="150" height="30" as="geometry">
            <mxRectangle width="150" height="30" as="alternateBounds" />
          </mxGeometry>
        </mxCell>
        <mxCell id="S49XvplFFmqanMfkmk6P-76" value="" style="shape=tableRow;horizontal=0;startSize=0;swimlaneHead=0;swimlaneBody=0;fillColor=none;collapsible=0;dropTarget=0;points=[[0,0.5],[1,0.5]];portConstraint=eastwest;top=0;left=0;right=0;bottom=0;" parent="S49XvplFFmqanMfkmk6P-66" vertex="1">
          <mxGeometry y="120" width="180" height="30" as="geometry" />
        </mxCell>
        <mxCell id="S49XvplFFmqanMfkmk6P-77" value="FK" style="shape=partialRectangle;connectable=0;fillColor=none;top=0;left=0;bottom=0;right=0;editable=1;overflow=hidden;whiteSpace=wrap;html=1;" parent="S49XvplFFmqanMfkmk6P-76" vertex="1">
          <mxGeometry width="30" height="30" as="geometry">
            <mxRectangle width="30" height="30" as="alternateBounds" />
          </mxGeometry>
        </mxCell>
        <mxCell id="S49XvplFFmqanMfkmk6P-78" value="&lt;span style=&quot;font-weight: 700; text-decoration-line: underline;&quot;&gt;ForumID&lt;/span&gt;" style="shape=partialRectangle;connectable=0;fillColor=none;top=0;left=0;bottom=0;right=0;align=left;spacingLeft=6;overflow=hidden;whiteSpace=wrap;html=1;" parent="S49XvplFFmqanMfkmk6P-76" vertex="1">
          <mxGeometry x="30" width="150" height="30" as="geometry">
            <mxRectangle width="150" height="30" as="alternateBounds" />
          </mxGeometry>
        </mxCell>
        <mxCell id="S49XvplFFmqanMfkmk6P-79" value="Document" style="shape=table;startSize=30;container=1;collapsible=1;childLayout=tableLayout;fixedRows=1;rowLines=0;fontStyle=1;align=center;resizeLast=1;html=1;" parent="1" vertex="1">
          <mxGeometry x="120" y="510" width="180" height="150" as="geometry" />
        </mxCell>
        <mxCell id="S49XvplFFmqanMfkmk6P-80" value="" style="shape=tableRow;horizontal=0;startSize=0;swimlaneHead=0;swimlaneBody=0;fillColor=none;collapsible=0;dropTarget=0;points=[[0,0.5],[1,0.5]];portConstraint=eastwest;top=0;left=0;right=0;bottom=1;" parent="S49XvplFFmqanMfkmk6P-79" vertex="1">
          <mxGeometry y="30" width="180" height="30" as="geometry" />
        </mxCell>
        <mxCell id="S49XvplFFmqanMfkmk6P-81" value="PK" style="shape=partialRectangle;connectable=0;fillColor=none;top=0;left=0;bottom=0;right=0;fontStyle=1;overflow=hidden;whiteSpace=wrap;html=1;" parent="S49XvplFFmqanMfkmk6P-80" vertex="1">
          <mxGeometry width="30" height="30" as="geometry">
            <mxRectangle width="30" height="30" as="alternateBounds" />
          </mxGeometry>
        </mxCell>
        <mxCell id="S49XvplFFmqanMfkmk6P-82" value="&lt;div style=&quot;text-align: center;&quot;&gt;&lt;span style=&quot;background-color: transparent; color: light-dark(rgb(0, 0, 0), rgb(255, 255, 255)); text-wrap-mode: nowrap;&quot;&gt;DocumentID&lt;/span&gt;&lt;/div&gt;" style="shape=partialRectangle;connectable=0;fillColor=none;top=0;left=0;bottom=0;right=0;align=left;spacingLeft=6;fontStyle=5;overflow=hidden;whiteSpace=wrap;html=1;" parent="S49XvplFFmqanMfkmk6P-80" vertex="1">
          <mxGeometry x="30" width="150" height="30" as="geometry">
            <mxRectangle width="150" height="30" as="alternateBounds" />
          </mxGeometry>
        </mxCell>
        <mxCell id="S49XvplFFmqanMfkmk6P-83" value="" style="shape=tableRow;horizontal=0;startSize=0;swimlaneHead=0;swimlaneBody=0;fillColor=none;collapsible=0;dropTarget=0;points=[[0,0.5],[1,0.5]];portConstraint=eastwest;top=0;left=0;right=0;bottom=0;" parent="S49XvplFFmqanMfkmk6P-79" vertex="1">
          <mxGeometry y="60" width="180" height="30" as="geometry" />
        </mxCell>
        <mxCell id="S49XvplFFmqanMfkmk6P-84" value="FK" style="shape=partialRectangle;connectable=0;fillColor=none;top=0;left=0;bottom=0;right=0;editable=1;overflow=hidden;whiteSpace=wrap;html=1;" parent="S49XvplFFmqanMfkmk6P-83" vertex="1">
          <mxGeometry width="30" height="30" as="geometry">
            <mxRectangle width="30" height="30" as="alternateBounds" />
          </mxGeometry>
        </mxCell>
        <mxCell id="S49XvplFFmqanMfkmk6P-85" value="&lt;span style=&quot;font-weight: 700; text-decoration-line: underline;&quot;&gt;CourseID&lt;/span&gt;" style="shape=partialRectangle;connectable=0;fillColor=none;top=0;left=0;bottom=0;right=0;align=left;spacingLeft=6;overflow=hidden;whiteSpace=wrap;html=1;" parent="S49XvplFFmqanMfkmk6P-83" vertex="1">
          <mxGeometry x="30" width="150" height="30" as="geometry">
            <mxRectangle width="150" height="30" as="alternateBounds" />
          </mxGeometry>
        </mxCell>
        <mxCell id="S49XvplFFmqanMfkmk6P-86" value="" style="shape=tableRow;horizontal=0;startSize=0;swimlaneHead=0;swimlaneBody=0;fillColor=none;collapsible=0;dropTarget=0;points=[[0,0.5],[1,0.5]];portConstraint=eastwest;top=0;left=0;right=0;bottom=0;" parent="S49XvplFFmqanMfkmk6P-79" vertex="1">
          <mxGeometry y="90" width="180" height="30" as="geometry" />
        </mxCell>
        <mxCell id="S49XvplFFmqanMfkmk6P-87" value="" style="shape=partialRectangle;connectable=0;fillColor=none;top=0;left=0;bottom=0;right=0;editable=1;overflow=hidden;whiteSpace=wrap;html=1;" parent="S49XvplFFmqanMfkmk6P-86" vertex="1">
          <mxGeometry width="30" height="30" as="geometry">
            <mxRectangle width="30" height="30" as="alternateBounds" />
          </mxGeometry>
        </mxCell>
        <mxCell id="S49XvplFFmqanMfkmk6P-88" value="ExerciseID" style="shape=partialRectangle;connectable=0;fillColor=none;top=0;left=0;bottom=0;right=0;align=left;spacingLeft=6;overflow=hidden;whiteSpace=wrap;html=1;" parent="S49XvplFFmqanMfkmk6P-86" vertex="1">
          <mxGeometry x="30" width="150" height="30" as="geometry">
            <mxRectangle width="150" height="30" as="alternateBounds" />
          </mxGeometry>
        </mxCell>
        <mxCell id="S49XvplFFmqanMfkmk6P-89" value="" style="shape=tableRow;horizontal=0;startSize=0;swimlaneHead=0;swimlaneBody=0;fillColor=none;collapsible=0;dropTarget=0;points=[[0,0.5],[1,0.5]];portConstraint=eastwest;top=0;left=0;right=0;bottom=0;" parent="S49XvplFFmqanMfkmk6P-79" vertex="1">
          <mxGeometry y="120" width="180" height="30" as="geometry" />
        </mxCell>
        <mxCell id="S49XvplFFmqanMfkmk6P-90" value="" style="shape=partialRectangle;connectable=0;fillColor=none;top=0;left=0;bottom=0;right=0;editable=1;overflow=hidden;whiteSpace=wrap;html=1;" parent="S49XvplFFmqanMfkmk6P-89" vertex="1">
          <mxGeometry width="30" height="30" as="geometry">
            <mxRectangle width="30" height="30" as="alternateBounds" />
          </mxGeometry>
        </mxCell>
        <mxCell id="S49XvplFFmqanMfkmk6P-91" value="Time" style="shape=partialRectangle;connectable=0;fillColor=none;top=0;left=0;bottom=0;right=0;align=left;spacingLeft=6;overflow=hidden;whiteSpace=wrap;html=1;" parent="S49XvplFFmqanMfkmk6P-89" vertex="1">
          <mxGeometry x="30" width="150" height="30" as="geometry">
            <mxRectangle width="150" height="30" as="alternateBounds" />
          </mxGeometry>
        </mxCell>
        <mxCell id="S49XvplFFmqanMfkmk6P-92" value="" style="edgeStyle=entityRelationEdgeStyle;fontSize=12;html=1;endArrow=ERoneToMany;rounded=0;exitX=1;exitY=0.5;exitDx=0;exitDy=0;" parent="1" source="S49XvplFFmqanMfkmk6P-11" target="S49XvplFFmqanMfkmk6P-53" edge="1">
          <mxGeometry width="100" height="100" relative="1" as="geometry">
            <mxPoint x="230" y="229" as="sourcePoint" />
            <mxPoint x="340" y="340" as="targetPoint" />
          </mxGeometry>
        </mxCell>
        <mxCell id="S49XvplFFmqanMfkmk6P-93" value="" style="edgeStyle=entityRelationEdgeStyle;fontSize=12;html=1;endArrow=ERoneToMany;rounded=0;entryX=0.012;entryY=0.118;entryDx=0;entryDy=0;entryPerimeter=0;exitX=1;exitY=0.5;exitDx=0;exitDy=0;" parent="1" source="S49XvplFFmqanMfkmk6P-60" target="S49XvplFFmqanMfkmk6P-27" edge="1">
          <mxGeometry width="100" height="100" relative="1" as="geometry">
            <mxPoint x="240" y="440" as="sourcePoint" />
            <mxPoint x="340" y="340" as="targetPoint" />
          </mxGeometry>
        </mxCell>
        <mxCell id="S49XvplFFmqanMfkmk6P-94" value="" style="edgeStyle=entityRelationEdgeStyle;fontSize=12;html=1;endArrow=ERoneToMany;rounded=0;entryX=1;entryY=0.5;entryDx=0;entryDy=0;" parent="1" source="S49XvplFFmqanMfkmk6P-24" target="S49XvplFFmqanMfkmk6P-28" edge="1">
          <mxGeometry width="100" height="100" relative="1" as="geometry">
            <mxPoint x="240" y="440" as="sourcePoint" />
            <mxPoint x="340" y="340" as="targetPoint" />
          </mxGeometry>
        </mxCell>
        <mxCell id="S49XvplFFmqanMfkmk6P-95" value="" style="edgeStyle=entityRelationEdgeStyle;fontSize=12;html=1;endArrow=ERoneToMany;rounded=0;exitX=0;exitY=0.5;exitDx=0;exitDy=0;entryX=0.989;entryY=0.2;entryDx=0;entryDy=0;entryPerimeter=0;" parent="1" source="S49XvplFFmqanMfkmk6P-44" target="S49XvplFFmqanMfkmk6P-70" edge="1">
          <mxGeometry width="100" height="100" relative="1" as="geometry">
            <mxPoint x="240" y="440" as="sourcePoint" />
            <mxPoint x="340" y="340" as="targetPoint" />
          </mxGeometry>
        </mxCell>
        <mxCell id="S49XvplFFmqanMfkmk6P-96" value="" style="edgeStyle=entityRelationEdgeStyle;fontSize=12;html=1;endArrow=ERmandOne;startArrow=ERmandOne;rounded=0;exitX=1;exitY=0.5;exitDx=0;exitDy=0;entryX=0;entryY=0.5;entryDx=0;entryDy=0;" parent="1" source="S49XvplFFmqanMfkmk6P-34" target="S49XvplFFmqanMfkmk6P-41" edge="1">
          <mxGeometry width="100" height="100" relative="1" as="geometry">
            <mxPoint x="240" y="440" as="sourcePoint" />
            <mxPoint x="340" y="340" as="targetPoint" />
          </mxGeometry>
        </mxCell>
        <mxCell id="S49XvplFFmqanMfkmk6P-97" value="" style="edgeStyle=entityRelationEdgeStyle;fontSize=12;html=1;endArrow=ERoneToMany;rounded=0;exitX=0;exitY=0.5;exitDx=0;exitDy=0;" parent="1" source="S49XvplFFmqanMfkmk6P-37" target="S49XvplFFmqanMfkmk6P-80" edge="1">
          <mxGeometry width="100" height="100" relative="1" as="geometry">
            <mxPoint x="240" y="440" as="sourcePoint" />
            <mxPoint x="340" y="340" as="targetPoint" />
          </mxGeometry>
        </mxCell>
      </root>
    </mxGraphModel>
  </diagram>
  <diagram id="0lG2CjlvOobmlots2u5F" name="Trang-2">
    <mxGraphModel dx="1476" dy="905" grid="1" gridSize="10" guides="1" tooltips="1" connect="1" arrows="1" fold="1" page="1" pageScale="1" pageWidth="827" pageHeight="1169" math="0" shadow="0">
      <root>
        <mxCell id="0" />
        <mxCell id="1" parent="0" />
        <mxCell id="kiYnCQ5DbY1iiftuZlFT-1" value="" style="strokeWidth=1;shadow=0;dashed=0;align=center;html=1;shape=mxgraph.mockup.containers.browserWindow;rSize=0;strokeColor=#666666;strokeColor2=#008cff;strokeColor3=#c4c4c4;mainText=,;recursiveResize=0;" parent="1" vertex="1">
          <mxGeometry width="1120" height="1290" as="geometry" />
        </mxCell>
        <mxCell id="kiYnCQ5DbY1iiftuZlFT-2" value="Page 1" style="strokeWidth=1;shadow=0;dashed=0;align=center;html=1;shape=mxgraph.mockup.containers.anchor;fontSize=17;fontColor=#666666;align=left;whiteSpace=wrap;" parent="kiYnCQ5DbY1iiftuZlFT-1" vertex="1">
          <mxGeometry x="60" y="12" width="110" height="26" as="geometry" />
        </mxCell>
        <mxCell id="kiYnCQ5DbY1iiftuZlFT-3" value="https://www.draw.io" style="strokeWidth=1;shadow=0;dashed=0;align=center;html=1;shape=mxgraph.mockup.containers.anchor;rSize=0;fontSize=17;fontColor=#666666;align=left;" parent="kiYnCQ5DbY1iiftuZlFT-1" vertex="1">
          <mxGeometry x="130" y="60" width="250" height="26" as="geometry" />
        </mxCell>
        <mxCell id="kiYnCQ5DbY1iiftuZlFT-4" value="" style="rounded=0;whiteSpace=wrap;html=1;" parent="kiYnCQ5DbY1iiftuZlFT-1" vertex="1">
          <mxGeometry y="110" width="1120" height="60" as="geometry" />
        </mxCell>
        <mxCell id="kiYnCQ5DbY1iiftuZlFT-5" value="" style="rounded=0;whiteSpace=wrap;html=1;" parent="kiYnCQ5DbY1iiftuZlFT-1" vertex="1">
          <mxGeometry y="110" width="120" height="60" as="geometry" />
        </mxCell>
        <mxCell id="kiYnCQ5DbY1iiftuZlFT-8" value="" style="endArrow=none;html=1;rounded=0;entryX=1;entryY=0;entryDx=0;entryDy=0;exitX=0;exitY=1;exitDx=0;exitDy=0;" parent="kiYnCQ5DbY1iiftuZlFT-1" source="kiYnCQ5DbY1iiftuZlFT-5" target="kiYnCQ5DbY1iiftuZlFT-5" edge="1">
          <mxGeometry width="50" height="50" relative="1" as="geometry">
            <mxPoint x="450" y="290" as="sourcePoint" />
            <mxPoint x="500" y="240" as="targetPoint" />
          </mxGeometry>
        </mxCell>
        <mxCell id="kiYnCQ5DbY1iiftuZlFT-9" value="" style="endArrow=none;html=1;rounded=0;entryX=0;entryY=0;entryDx=0;entryDy=0;exitX=1;exitY=1;exitDx=0;exitDy=0;" parent="kiYnCQ5DbY1iiftuZlFT-1" source="kiYnCQ5DbY1iiftuZlFT-5" target="kiYnCQ5DbY1iiftuZlFT-5" edge="1">
          <mxGeometry width="50" height="50" relative="1" as="geometry">
            <mxPoint x="450" y="290" as="sourcePoint" />
            <mxPoint x="500" y="240" as="targetPoint" />
          </mxGeometry>
        </mxCell>
        <mxCell id="kiYnCQ5DbY1iiftuZlFT-11" value="Mua xe" style="text;html=1;align=center;verticalAlign=middle;whiteSpace=wrap;rounded=0;" parent="kiYnCQ5DbY1iiftuZlFT-1" vertex="1">
          <mxGeometry x="130" y="125" width="60" height="30" as="geometry" />
        </mxCell>
        <mxCell id="kiYnCQ5DbY1iiftuZlFT-14" value="Bán xe" style="text;html=1;align=center;verticalAlign=middle;whiteSpace=wrap;rounded=0;" parent="kiYnCQ5DbY1iiftuZlFT-1" vertex="1">
          <mxGeometry x="200" y="125" width="60" height="30" as="geometry" />
        </mxCell>
        <mxCell id="kiYnCQ5DbY1iiftuZlFT-15" value="Giới thiệu" style="text;html=1;align=center;verticalAlign=middle;whiteSpace=wrap;rounded=0;" parent="kiYnCQ5DbY1iiftuZlFT-1" vertex="1">
          <mxGeometry x="270" y="125" width="60" height="30" as="geometry" />
        </mxCell>
        <mxCell id="kiYnCQ5DbY1iiftuZlFT-16" value="Tin tức" style="text;html=1;align=center;verticalAlign=middle;whiteSpace=wrap;rounded=0;" parent="kiYnCQ5DbY1iiftuZlFT-1" vertex="1">
          <mxGeometry x="340" y="125" width="60" height="30" as="geometry" />
        </mxCell>
        <mxCell id="kiYnCQ5DbY1iiftuZlFT-17" value="Tài khoản" style="text;html=1;align=center;verticalAlign=middle;whiteSpace=wrap;rounded=0;" parent="kiYnCQ5DbY1iiftuZlFT-1" vertex="1">
          <mxGeometry x="1040" y="125" width="60" height="30" as="geometry" />
        </mxCell>
        <mxCell id="kiYnCQ5DbY1iiftuZlFT-18" value="0938119439" style="text;html=1;align=center;verticalAlign=middle;whiteSpace=wrap;rounded=0;" parent="kiYnCQ5DbY1iiftuZlFT-1" vertex="1">
          <mxGeometry x="950" y="125" width="60" height="30" as="geometry" />
        </mxCell>
        <mxCell id="kiYnCQ5DbY1iiftuZlFT-19" value="" style="shape=mxgraph.signs.tech.telephone_1;html=1;pointerEvents=1;fillColor=#000000;strokeColor=none;verticalLabelPosition=bottom;verticalAlign=top;align=center;" parent="kiYnCQ5DbY1iiftuZlFT-1" vertex="1">
          <mxGeometry x="930" y="125" width="12" height="30" as="geometry" />
        </mxCell>
        <mxCell id="gLUR2wA6_G8ixil-zu2T-1" value="" style="rounded=0;whiteSpace=wrap;html=1;" parent="kiYnCQ5DbY1iiftuZlFT-1" vertex="1">
          <mxGeometry y="210" width="310" height="140" as="geometry" />
        </mxCell>
        <mxCell id="gLUR2wA6_G8ixil-zu2T-2" value="" style="rounded=0;whiteSpace=wrap;html=1;" parent="kiYnCQ5DbY1iiftuZlFT-1" vertex="1">
          <mxGeometry x="330" y="210.5" width="310" height="140" as="geometry" />
        </mxCell>
        <mxCell id="gLUR2wA6_G8ixil-zu2T-3" value="" style="rounded=0;whiteSpace=wrap;html=1;" parent="kiYnCQ5DbY1iiftuZlFT-1" vertex="1">
          <mxGeometry x="660" y="210.5" width="310" height="140" as="geometry" />
        </mxCell>
        <mxCell id="gLUR2wA6_G8ixil-zu2T-4" value="" style="rounded=0;whiteSpace=wrap;html=1;" parent="kiYnCQ5DbY1iiftuZlFT-1" vertex="1">
          <mxGeometry x="990" y="210" width="130" height="140" as="geometry" />
        </mxCell>
        <mxCell id="gLUR2wA6_G8ixil-zu2T-5" value="" style="image;sketch=0;aspect=fixed;html=1;points=[];align=center;fontSize=12;image=img/lib/mscae/Input.svg;" parent="kiYnCQ5DbY1iiftuZlFT-1" vertex="1">
          <mxGeometry x="1070" y="258" width="50" height="45" as="geometry" />
        </mxCell>
        <mxCell id="gLUR2wA6_G8ixil-zu2T-6" value="" style="image;sketch=0;aspect=fixed;html=1;points=[];align=center;fontSize=12;image=img/lib/mscae/Input.svg;direction=west;" parent="kiYnCQ5DbY1iiftuZlFT-1" vertex="1">
          <mxGeometry x="30" y="257.5" width="50" height="45" as="geometry" />
        </mxCell>
        <mxCell id="gLUR2wA6_G8ixil-zu2T-7" value="Bộ lọc" style="swimlane;fontStyle=0;childLayout=stackLayout;horizontal=1;startSize=30;horizontalStack=0;resizeParent=1;resizeParentMax=0;resizeLast=0;collapsible=1;marginBottom=0;whiteSpace=wrap;html=1;" parent="kiYnCQ5DbY1iiftuZlFT-1" vertex="1">
          <mxGeometry x="90" y="430" width="140" height="180" as="geometry" />
        </mxCell>
        <mxCell id="gLUR2wA6_G8ixil-zu2T-8" value="Hãng xe" style="text;strokeColor=none;fillColor=none;align=left;verticalAlign=middle;spacingLeft=4;spacingRight=4;overflow=hidden;points=[[0,0.5],[1,0.5]];portConstraint=eastwest;rotatable=0;whiteSpace=wrap;html=1;" parent="gLUR2wA6_G8ixil-zu2T-7" vertex="1">
          <mxGeometry y="30" width="140" height="30" as="geometry" />
        </mxCell>
        <mxCell id="gLUR2wA6_G8ixil-zu2T-13" value="Địa điểm" style="text;strokeColor=none;fillColor=none;align=left;verticalAlign=middle;spacingLeft=4;spacingRight=4;overflow=hidden;points=[[0,0.5],[1,0.5]];portConstraint=eastwest;rotatable=0;whiteSpace=wrap;html=1;" parent="gLUR2wA6_G8ixil-zu2T-7" vertex="1">
          <mxGeometry y="60" width="140" height="30" as="geometry" />
        </mxCell>
        <mxCell id="gLUR2wA6_G8ixil-zu2T-14" value="Giá" style="text;strokeColor=none;fillColor=none;align=left;verticalAlign=middle;spacingLeft=4;spacingRight=4;overflow=hidden;points=[[0,0.5],[1,0.5]];portConstraint=eastwest;rotatable=0;whiteSpace=wrap;html=1;" parent="gLUR2wA6_G8ixil-zu2T-7" vertex="1">
          <mxGeometry y="90" width="140" height="30" as="geometry" />
        </mxCell>
        <mxCell id="gLUR2wA6_G8ixil-zu2T-9" value="Màu sắc" style="text;strokeColor=none;fillColor=none;align=left;verticalAlign=middle;spacingLeft=4;spacingRight=4;overflow=hidden;points=[[0,0.5],[1,0.5]];portConstraint=eastwest;rotatable=0;whiteSpace=wrap;html=1;" parent="gLUR2wA6_G8ixil-zu2T-7" vertex="1">
          <mxGeometry y="120" width="140" height="30" as="geometry" />
        </mxCell>
        <mxCell id="gLUR2wA6_G8ixil-zu2T-12" value="Số chỗ ngồi" style="text;strokeColor=none;fillColor=none;align=left;verticalAlign=middle;spacingLeft=4;spacingRight=4;overflow=hidden;points=[[0,0.5],[1,0.5]];portConstraint=eastwest;rotatable=0;whiteSpace=wrap;html=1;" parent="gLUR2wA6_G8ixil-zu2T-7" vertex="1">
          <mxGeometry y="150" width="140" height="30" as="geometry" />
        </mxCell>
        <mxCell id="gLUR2wA6_G8ixil-zu2T-15" value="" style="endArrow=none;html=1;rounded=0;entryX=1;entryY=0;entryDx=0;entryDy=0;exitX=0;exitY=1;exitDx=0;exitDy=0;" parent="kiYnCQ5DbY1iiftuZlFT-1" source="gLUR2wA6_G8ixil-zu2T-1" target="gLUR2wA6_G8ixil-zu2T-1" edge="1">
          <mxGeometry width="50" height="50" relative="1" as="geometry">
            <mxPoint x="490" y="420" as="sourcePoint" />
            <mxPoint x="540" y="370" as="targetPoint" />
          </mxGeometry>
        </mxCell>
        <mxCell id="gLUR2wA6_G8ixil-zu2T-16" value="" style="endArrow=none;html=1;rounded=0;entryX=0;entryY=0;entryDx=0;entryDy=0;" parent="kiYnCQ5DbY1iiftuZlFT-1" source="kiYnCQ5DbY1iiftuZlFT-1" target="gLUR2wA6_G8ixil-zu2T-1" edge="1">
          <mxGeometry width="50" height="50" relative="1" as="geometry">
            <mxPoint x="490" y="420" as="sourcePoint" />
            <mxPoint x="540" y="370" as="targetPoint" />
          </mxGeometry>
        </mxCell>
        <mxCell id="gLUR2wA6_G8ixil-zu2T-17" value="" style="endArrow=none;html=1;rounded=0;entryX=0;entryY=0;entryDx=0;entryDy=0;exitX=1;exitY=1;exitDx=0;exitDy=0;" parent="kiYnCQ5DbY1iiftuZlFT-1" source="gLUR2wA6_G8ixil-zu2T-1" target="gLUR2wA6_G8ixil-zu2T-1" edge="1">
          <mxGeometry width="50" height="50" relative="1" as="geometry">
            <mxPoint x="490" y="420" as="sourcePoint" />
            <mxPoint x="540" y="370" as="targetPoint" />
          </mxGeometry>
        </mxCell>
        <mxCell id="gLUR2wA6_G8ixil-zu2T-18" value="" style="endArrow=none;html=1;rounded=0;entryX=0.012;entryY=0.057;entryDx=0;entryDy=0;entryPerimeter=0;exitX=1;exitY=1;exitDx=0;exitDy=0;" parent="kiYnCQ5DbY1iiftuZlFT-1" source="gLUR2wA6_G8ixil-zu2T-2" target="gLUR2wA6_G8ixil-zu2T-2" edge="1">
          <mxGeometry width="50" height="50" relative="1" as="geometry">
            <mxPoint x="510" y="430" as="sourcePoint" />
            <mxPoint x="560" y="380" as="targetPoint" />
          </mxGeometry>
        </mxCell>
        <mxCell id="gLUR2wA6_G8ixil-zu2T-19" value="" style="endArrow=none;html=1;rounded=0;entryX=1;entryY=0;entryDx=0;entryDy=0;exitX=0;exitY=1;exitDx=0;exitDy=0;" parent="kiYnCQ5DbY1iiftuZlFT-1" source="gLUR2wA6_G8ixil-zu2T-2" target="gLUR2wA6_G8ixil-zu2T-2" edge="1">
          <mxGeometry width="50" height="50" relative="1" as="geometry">
            <mxPoint x="510" y="430" as="sourcePoint" />
            <mxPoint x="560" y="380" as="targetPoint" />
          </mxGeometry>
        </mxCell>
        <mxCell id="gLUR2wA6_G8ixil-zu2T-20" value="" style="endArrow=none;html=1;rounded=0;entryX=1;entryY=0;entryDx=0;entryDy=0;exitX=0;exitY=1;exitDx=0;exitDy=0;" parent="kiYnCQ5DbY1iiftuZlFT-1" source="gLUR2wA6_G8ixil-zu2T-3" target="gLUR2wA6_G8ixil-zu2T-3" edge="1">
          <mxGeometry width="50" height="50" relative="1" as="geometry">
            <mxPoint x="510" y="430" as="sourcePoint" />
            <mxPoint x="560" y="380" as="targetPoint" />
          </mxGeometry>
        </mxCell>
        <mxCell id="gLUR2wA6_G8ixil-zu2T-21" value="" style="endArrow=none;html=1;rounded=0;entryX=0;entryY=0;entryDx=0;entryDy=0;exitX=1;exitY=1;exitDx=0;exitDy=0;" parent="kiYnCQ5DbY1iiftuZlFT-1" source="gLUR2wA6_G8ixil-zu2T-3" target="gLUR2wA6_G8ixil-zu2T-3" edge="1">
          <mxGeometry width="50" height="50" relative="1" as="geometry">
            <mxPoint x="510" y="430" as="sourcePoint" />
            <mxPoint x="560" y="380" as="targetPoint" />
          </mxGeometry>
        </mxCell>
        <mxCell id="gLUR2wA6_G8ixil-zu2T-22" value="" style="endArrow=none;html=1;rounded=0;entryX=0;entryY=0;entryDx=0;entryDy=0;exitX=1;exitY=1;exitDx=0;exitDy=0;" parent="kiYnCQ5DbY1iiftuZlFT-1" source="gLUR2wA6_G8ixil-zu2T-4" target="gLUR2wA6_G8ixil-zu2T-4" edge="1">
          <mxGeometry width="50" height="50" relative="1" as="geometry">
            <mxPoint x="710" y="440" as="sourcePoint" />
            <mxPoint x="760" y="390" as="targetPoint" />
          </mxGeometry>
        </mxCell>
        <mxCell id="gLUR2wA6_G8ixil-zu2T-23" value="" style="endArrow=none;html=1;rounded=0;entryX=1;entryY=0;entryDx=0;entryDy=0;exitX=0;exitY=1;exitDx=0;exitDy=0;" parent="kiYnCQ5DbY1iiftuZlFT-1" source="gLUR2wA6_G8ixil-zu2T-4" target="gLUR2wA6_G8ixil-zu2T-4" edge="1">
          <mxGeometry width="50" height="50" relative="1" as="geometry">
            <mxPoint x="710" y="440" as="sourcePoint" />
            <mxPoint x="760" y="390" as="targetPoint" />
          </mxGeometry>
        </mxCell>
        <mxCell id="gLUR2wA6_G8ixil-zu2T-24" value="" style="rounded=0;whiteSpace=wrap;html=1;" parent="kiYnCQ5DbY1iiftuZlFT-1" vertex="1">
          <mxGeometry x="270" y="380" width="750" height="50" as="geometry" />
        </mxCell>
        <mxCell id="gLUR2wA6_G8ixil-zu2T-25" value="Tìm kiếm&amp;nbsp;" style="text;html=1;align=center;verticalAlign=middle;whiteSpace=wrap;rounded=0;" parent="kiYnCQ5DbY1iiftuZlFT-1" vertex="1">
          <mxGeometry x="280" y="390" width="60" height="30" as="geometry" />
        </mxCell>
        <mxCell id="gLUR2wA6_G8ixil-zu2T-26" value="" style="whiteSpace=wrap;html=1;aspect=fixed;" parent="kiYnCQ5DbY1iiftuZlFT-1" vertex="1">
          <mxGeometry x="280" y="450" width="320" height="320" as="geometry" />
        </mxCell>
        <mxCell id="gLUR2wA6_G8ixil-zu2T-27" value="" style="endArrow=none;html=1;rounded=0;entryX=0.996;entryY=0.024;entryDx=0;entryDy=0;entryPerimeter=0;exitX=0;exitY=1;exitDx=0;exitDy=0;" parent="kiYnCQ5DbY1iiftuZlFT-1" source="gLUR2wA6_G8ixil-zu2T-26" target="gLUR2wA6_G8ixil-zu2T-26" edge="1">
          <mxGeometry width="50" height="50" relative="1" as="geometry">
            <mxPoint x="600" y="500" as="sourcePoint" />
            <mxPoint x="650" y="450" as="targetPoint" />
          </mxGeometry>
        </mxCell>
        <mxCell id="gLUR2wA6_G8ixil-zu2T-28" value="" style="endArrow=none;html=1;rounded=0;entryX=0;entryY=0;entryDx=0;entryDy=0;exitX=1;exitY=1;exitDx=0;exitDy=0;" parent="kiYnCQ5DbY1iiftuZlFT-1" source="gLUR2wA6_G8ixil-zu2T-26" target="gLUR2wA6_G8ixil-zu2T-26" edge="1">
          <mxGeometry width="50" height="50" relative="1" as="geometry">
            <mxPoint x="600" y="500" as="sourcePoint" />
            <mxPoint x="650" y="450" as="targetPoint" />
          </mxGeometry>
        </mxCell>
        <mxCell id="gLUR2wA6_G8ixil-zu2T-30" value="" style="whiteSpace=wrap;html=1;aspect=fixed;" parent="kiYnCQ5DbY1iiftuZlFT-1" vertex="1">
          <mxGeometry x="690" y="450" width="320" height="320" as="geometry" />
        </mxCell>
        <mxCell id="gLUR2wA6_G8ixil-zu2T-31" value="" style="endArrow=none;html=1;rounded=0;entryX=1;entryY=0;entryDx=0;entryDy=0;exitX=0;exitY=1;exitDx=0;exitDy=0;" parent="kiYnCQ5DbY1iiftuZlFT-1" source="gLUR2wA6_G8ixil-zu2T-30" target="gLUR2wA6_G8ixil-zu2T-30" edge="1">
          <mxGeometry width="50" height="50" relative="1" as="geometry">
            <mxPoint x="720" y="780" as="sourcePoint" />
            <mxPoint x="770" y="730" as="targetPoint" />
          </mxGeometry>
        </mxCell>
        <mxCell id="gLUR2wA6_G8ixil-zu2T-32" value="" style="endArrow=none;html=1;rounded=0;entryX=0;entryY=0;entryDx=0;entryDy=0;exitX=0.969;exitY=1;exitDx=0;exitDy=0;exitPerimeter=0;" parent="kiYnCQ5DbY1iiftuZlFT-1" source="gLUR2wA6_G8ixil-zu2T-30" target="gLUR2wA6_G8ixil-zu2T-30" edge="1">
          <mxGeometry width="50" height="50" relative="1" as="geometry">
            <mxPoint x="720" y="780" as="sourcePoint" />
            <mxPoint x="770" y="730" as="targetPoint" />
          </mxGeometry>
        </mxCell>
        <mxCell id="gLUR2wA6_G8ixil-zu2T-33" value="" style="whiteSpace=wrap;html=1;aspect=fixed;" parent="kiYnCQ5DbY1iiftuZlFT-1" vertex="1">
          <mxGeometry x="280" y="800" width="320" height="320" as="geometry" />
        </mxCell>
        <mxCell id="gLUR2wA6_G8ixil-zu2T-34" value="" style="endArrow=none;html=1;rounded=0;entryX=1;entryY=0;entryDx=0;entryDy=0;exitX=0;exitY=1;exitDx=0;exitDy=0;" parent="kiYnCQ5DbY1iiftuZlFT-1" source="gLUR2wA6_G8ixil-zu2T-33" target="gLUR2wA6_G8ixil-zu2T-33" edge="1">
          <mxGeometry width="50" height="50" relative="1" as="geometry">
            <mxPoint x="480" y="920" as="sourcePoint" />
            <mxPoint x="530" y="870" as="targetPoint" />
          </mxGeometry>
        </mxCell>
        <mxCell id="gLUR2wA6_G8ixil-zu2T-35" value="" style="endArrow=none;html=1;rounded=0;entryX=0;entryY=0;entryDx=0;entryDy=0;exitX=1;exitY=1;exitDx=0;exitDy=0;" parent="kiYnCQ5DbY1iiftuZlFT-1" source="gLUR2wA6_G8ixil-zu2T-33" target="gLUR2wA6_G8ixil-zu2T-33" edge="1">
          <mxGeometry width="50" height="50" relative="1" as="geometry">
            <mxPoint x="480" y="920" as="sourcePoint" />
            <mxPoint x="530" y="870" as="targetPoint" />
          </mxGeometry>
        </mxCell>
        <mxCell id="gLUR2wA6_G8ixil-zu2T-36" value="" style="whiteSpace=wrap;html=1;aspect=fixed;" parent="kiYnCQ5DbY1iiftuZlFT-1" vertex="1">
          <mxGeometry x="690" y="800" width="320" height="320" as="geometry" />
        </mxCell>
        <mxCell id="gLUR2wA6_G8ixil-zu2T-37" value="" style="endArrow=none;html=1;rounded=0;entryX=1;entryY=0;entryDx=0;entryDy=0;exitX=0;exitY=1;exitDx=0;exitDy=0;" parent="kiYnCQ5DbY1iiftuZlFT-1" source="gLUR2wA6_G8ixil-zu2T-36" target="gLUR2wA6_G8ixil-zu2T-36" edge="1">
          <mxGeometry width="50" height="50" relative="1" as="geometry">
            <mxPoint x="620" y="930" as="sourcePoint" />
            <mxPoint x="670" y="880" as="targetPoint" />
          </mxGeometry>
        </mxCell>
        <mxCell id="gLUR2wA6_G8ixil-zu2T-38" value="" style="endArrow=none;html=1;rounded=0;entryX=0;entryY=0;entryDx=0;entryDy=0;exitX=1;exitY=1;exitDx=0;exitDy=0;" parent="kiYnCQ5DbY1iiftuZlFT-1" source="gLUR2wA6_G8ixil-zu2T-36" target="gLUR2wA6_G8ixil-zu2T-36" edge="1">
          <mxGeometry width="50" height="50" relative="1" as="geometry">
            <mxPoint x="620" y="930" as="sourcePoint" />
            <mxPoint x="670" y="880" as="targetPoint" />
          </mxGeometry>
        </mxCell>
        <mxCell id="gLUR2wA6_G8ixil-zu2T-39" value="1" style="whiteSpace=wrap;html=1;aspect=fixed;" parent="kiYnCQ5DbY1iiftuZlFT-1" vertex="1">
          <mxGeometry x="380" y="1169" width="29" height="29" as="geometry" />
        </mxCell>
        <mxCell id="gLUR2wA6_G8ixil-zu2T-40" value="2" style="whiteSpace=wrap;html=1;aspect=fixed;" parent="kiYnCQ5DbY1iiftuZlFT-1" vertex="1">
          <mxGeometry x="425.5" y="1170" width="29" height="29" as="geometry" />
        </mxCell>
        <mxCell id="gLUR2wA6_G8ixil-zu2T-41" value="3" style="whiteSpace=wrap;html=1;aspect=fixed;" parent="kiYnCQ5DbY1iiftuZlFT-1" vertex="1">
          <mxGeometry x="470" y="1170" width="29" height="29" as="geometry" />
        </mxCell>
        <mxCell id="gLUR2wA6_G8ixil-zu2T-42" value="4" style="whiteSpace=wrap;html=1;aspect=fixed;" parent="kiYnCQ5DbY1iiftuZlFT-1" vertex="1">
          <mxGeometry x="510" y="1169" width="29" height="29" as="geometry" />
        </mxCell>
        <mxCell id="gLUR2wA6_G8ixil-zu2T-43" value="99" style="whiteSpace=wrap;html=1;aspect=fixed;" parent="kiYnCQ5DbY1iiftuZlFT-1" vertex="1">
          <mxGeometry x="680" y="1169" width="29" height="29" as="geometry" />
        </mxCell>
        <mxCell id="gLUR2wA6_G8ixil-zu2T-44" value="100" style="whiteSpace=wrap;html=1;aspect=fixed;" parent="kiYnCQ5DbY1iiftuZlFT-1" vertex="1">
          <mxGeometry x="720" y="1169" width="29" height="29" as="geometry" />
        </mxCell>
        <mxCell id="gLUR2wA6_G8ixil-zu2T-45" value="98" style="whiteSpace=wrap;html=1;aspect=fixed;" parent="kiYnCQ5DbY1iiftuZlFT-1" vertex="1">
          <mxGeometry x="640" y="1169" width="29" height="29" as="geometry" />
        </mxCell>
        <mxCell id="gLUR2wA6_G8ixil-zu2T-46" value="" style="whiteSpace=wrap;html=1;aspect=fixed;" parent="kiYnCQ5DbY1iiftuZlFT-1" vertex="1">
          <mxGeometry x="550" y="1169" width="29" height="29" as="geometry" />
        </mxCell>
        <mxCell id="gLUR2wA6_G8ixil-zu2T-47" value="...." style="text;html=1;align=center;verticalAlign=middle;whiteSpace=wrap;rounded=0;" parent="kiYnCQ5DbY1iiftuZlFT-1" vertex="1">
          <mxGeometry x="580" y="1168" width="60" height="30" as="geometry" />
        </mxCell>
        <mxCell id="gLUR2wA6_G8ixil-zu2T-48" value="" style="image;sketch=0;aspect=fixed;html=1;points=[];align=center;fontSize=12;image=img/lib/mscae/Input.svg;" parent="kiYnCQ5DbY1iiftuZlFT-1" vertex="1">
          <mxGeometry x="760" y="1168" width="35.56" height="32" as="geometry" />
        </mxCell>
        <mxCell id="gLUR2wA6_G8ixil-zu2T-49" value="" style="image;sketch=0;aspect=fixed;html=1;points=[];align=center;fontSize=12;image=img/lib/mscae/Input.svg;direction=west;" parent="kiYnCQ5DbY1iiftuZlFT-1" vertex="1">
          <mxGeometry x="330" y="1170" width="35.56" height="32" as="geometry" />
        </mxCell>
        <mxCell id="gLUR2wA6_G8ixil-zu2T-50" value="" style="strokeWidth=1;shadow=0;dashed=0;align=center;html=1;shape=mxgraph.mockup.containers.browserWindow;rSize=0;strokeColor=#666666;strokeColor2=#008cff;strokeColor3=#c4c4c4;mainText=,;recursiveResize=0;" parent="1" vertex="1">
          <mxGeometry x="1361" width="1120" height="1000" as="geometry" />
        </mxCell>
        <mxCell id="gLUR2wA6_G8ixil-zu2T-51" value="Page 1" style="strokeWidth=1;shadow=0;dashed=0;align=center;html=1;shape=mxgraph.mockup.containers.anchor;fontSize=17;fontColor=#666666;align=left;whiteSpace=wrap;" parent="gLUR2wA6_G8ixil-zu2T-50" vertex="1">
          <mxGeometry x="60" y="12" width="110" height="26" as="geometry" />
        </mxCell>
        <mxCell id="gLUR2wA6_G8ixil-zu2T-52" value="https://www.draw.io" style="strokeWidth=1;shadow=0;dashed=0;align=center;html=1;shape=mxgraph.mockup.containers.anchor;rSize=0;fontSize=17;fontColor=#666666;align=left;" parent="gLUR2wA6_G8ixil-zu2T-50" vertex="1">
          <mxGeometry x="130" y="60" width="250" height="26" as="geometry" />
        </mxCell>
        <mxCell id="gLUR2wA6_G8ixil-zu2T-53" value="" style="rounded=0;whiteSpace=wrap;html=1;" parent="gLUR2wA6_G8ixil-zu2T-50" vertex="1">
          <mxGeometry y="110" width="1120" height="60" as="geometry" />
        </mxCell>
        <mxCell id="gLUR2wA6_G8ixil-zu2T-54" value="" style="rounded=0;whiteSpace=wrap;html=1;" parent="gLUR2wA6_G8ixil-zu2T-50" vertex="1">
          <mxGeometry y="110" width="120" height="60" as="geometry" />
        </mxCell>
        <mxCell id="gLUR2wA6_G8ixil-zu2T-55" value="" style="endArrow=none;html=1;rounded=0;entryX=1;entryY=0;entryDx=0;entryDy=0;exitX=0;exitY=1;exitDx=0;exitDy=0;" parent="gLUR2wA6_G8ixil-zu2T-50" source="gLUR2wA6_G8ixil-zu2T-54" target="gLUR2wA6_G8ixil-zu2T-54" edge="1">
          <mxGeometry width="50" height="50" relative="1" as="geometry">
            <mxPoint x="450" y="290" as="sourcePoint" />
            <mxPoint x="500" y="240" as="targetPoint" />
          </mxGeometry>
        </mxCell>
        <mxCell id="gLUR2wA6_G8ixil-zu2T-56" value="" style="endArrow=none;html=1;rounded=0;entryX=0;entryY=0;entryDx=0;entryDy=0;exitX=1;exitY=1;exitDx=0;exitDy=0;" parent="gLUR2wA6_G8ixil-zu2T-50" source="gLUR2wA6_G8ixil-zu2T-54" target="gLUR2wA6_G8ixil-zu2T-54" edge="1">
          <mxGeometry width="50" height="50" relative="1" as="geometry">
            <mxPoint x="450" y="290" as="sourcePoint" />
            <mxPoint x="500" y="240" as="targetPoint" />
          </mxGeometry>
        </mxCell>
        <mxCell id="gLUR2wA6_G8ixil-zu2T-57" value="Mua xe" style="text;html=1;align=center;verticalAlign=middle;whiteSpace=wrap;rounded=0;" parent="gLUR2wA6_G8ixil-zu2T-50" vertex="1">
          <mxGeometry x="130" y="125" width="60" height="30" as="geometry" />
        </mxCell>
        <mxCell id="gLUR2wA6_G8ixil-zu2T-58" value="Bán xe" style="text;html=1;align=center;verticalAlign=middle;whiteSpace=wrap;rounded=0;" parent="gLUR2wA6_G8ixil-zu2T-50" vertex="1">
          <mxGeometry x="200" y="125" width="60" height="30" as="geometry" />
        </mxCell>
        <mxCell id="gLUR2wA6_G8ixil-zu2T-59" value="Giới thiệu" style="text;html=1;align=center;verticalAlign=middle;whiteSpace=wrap;rounded=0;" parent="gLUR2wA6_G8ixil-zu2T-50" vertex="1">
          <mxGeometry x="270" y="125" width="60" height="30" as="geometry" />
        </mxCell>
        <mxCell id="gLUR2wA6_G8ixil-zu2T-60" value="Tin tức" style="text;html=1;align=center;verticalAlign=middle;whiteSpace=wrap;rounded=0;" parent="gLUR2wA6_G8ixil-zu2T-50" vertex="1">
          <mxGeometry x="340" y="125" width="60" height="30" as="geometry" />
        </mxCell>
        <mxCell id="gLUR2wA6_G8ixil-zu2T-61" value="Tài khoản" style="text;html=1;align=center;verticalAlign=middle;whiteSpace=wrap;rounded=0;" parent="gLUR2wA6_G8ixil-zu2T-50" vertex="1">
          <mxGeometry x="1040" y="125" width="60" height="30" as="geometry" />
        </mxCell>
        <mxCell id="gLUR2wA6_G8ixil-zu2T-62" value="0938119439" style="text;html=1;align=center;verticalAlign=middle;whiteSpace=wrap;rounded=0;" parent="gLUR2wA6_G8ixil-zu2T-50" vertex="1">
          <mxGeometry x="950" y="125" width="60" height="30" as="geometry" />
        </mxCell>
        <mxCell id="gLUR2wA6_G8ixil-zu2T-63" value="" style="shape=mxgraph.signs.tech.telephone_1;html=1;pointerEvents=1;fillColor=#000000;strokeColor=none;verticalLabelPosition=bottom;verticalAlign=top;align=center;" parent="gLUR2wA6_G8ixil-zu2T-50" vertex="1">
          <mxGeometry x="930" y="125" width="12" height="30" as="geometry" />
        </mxCell>
        <mxCell id="gLUR2wA6_G8ixil-zu2T-77" value="" style="endArrow=none;html=1;rounded=0;entryX=0;entryY=0;entryDx=0;entryDy=0;" parent="gLUR2wA6_G8ixil-zu2T-50" source="gLUR2wA6_G8ixil-zu2T-50" edge="1">
          <mxGeometry width="50" height="50" relative="1" as="geometry">
            <mxPoint x="490" y="420" as="sourcePoint" />
            <mxPoint y="210" as="targetPoint" />
          </mxGeometry>
        </mxCell>
        <mxCell id="gLUR2wA6_G8ixil-zu2T-122" value="" style="rounded=0;whiteSpace=wrap;html=1;" parent="gLUR2wA6_G8ixil-zu2T-50" vertex="1">
          <mxGeometry x="202" y="300" width="740" height="560" as="geometry" />
        </mxCell>
        <mxCell id="gLUR2wA6_G8ixil-zu2T-123" value="&lt;font style=&quot;font-size: 20px;&quot;&gt;Đăng nhập&lt;/font&gt;" style="text;html=1;align=center;verticalAlign=middle;whiteSpace=wrap;rounded=0;" parent="gLUR2wA6_G8ixil-zu2T-50" vertex="1">
          <mxGeometry x="507" y="360" width="130" height="30" as="geometry" />
        </mxCell>
        <mxCell id="gLUR2wA6_G8ixil-zu2T-126" value="" style="rounded=0;whiteSpace=wrap;html=1;" parent="gLUR2wA6_G8ixil-zu2T-50" vertex="1">
          <mxGeometry x="495" y="440" width="301" height="60" as="geometry" />
        </mxCell>
        <mxCell id="gLUR2wA6_G8ixil-zu2T-127" value="" style="rounded=0;whiteSpace=wrap;html=1;" parent="gLUR2wA6_G8ixil-zu2T-50" vertex="1">
          <mxGeometry x="495" y="570" width="301" height="60" as="geometry" />
        </mxCell>
        <mxCell id="gLUR2wA6_G8ixil-zu2T-128" value="&lt;font style=&quot;font-size: 16px;&quot;&gt;Chưa có tài khoản? Đăng ký ngay&lt;/font&gt;" style="text;html=1;align=center;verticalAlign=middle;whiteSpace=wrap;rounded=0;" parent="gLUR2wA6_G8ixil-zu2T-50" vertex="1">
          <mxGeometry x="340" y="770" width="580" height="30" as="geometry" />
        </mxCell>
        <mxCell id="gLUR2wA6_G8ixil-zu2T-130" value="&lt;font style=&quot;font-size: 20px;&quot;&gt;Dăng nhập&lt;/font&gt;" style="rounded=0;whiteSpace=wrap;html=1;" parent="gLUR2wA6_G8ixil-zu2T-50" vertex="1">
          <mxGeometry x="495" y="680" width="301" height="60" as="geometry" />
        </mxCell>
        <mxCell id="gLUR2wA6_G8ixil-zu2T-125" value="&lt;font style=&quot;font-size: 20px;&quot;&gt;Mật khẩu&lt;/font&gt;" style="text;html=1;align=left;verticalAlign=middle;whiteSpace=wrap;rounded=0;" parent="gLUR2wA6_G8ixil-zu2T-50" vertex="1">
          <mxGeometry x="340" y="585" width="130" height="30" as="geometry" />
        </mxCell>
        <mxCell id="gLUR2wA6_G8ixil-zu2T-124" value="&lt;font style=&quot;font-size: 20px;&quot;&gt;Số điện thoại&lt;/font&gt;" style="text;html=1;align=left;verticalAlign=middle;whiteSpace=wrap;rounded=0;" parent="1" vertex="1">
          <mxGeometry x="1700" y="460" width="130" height="30" as="geometry" />
        </mxCell>
        <mxCell id="rDIyfeDL_a6o-o4ALh9H-1" value="" style="strokeWidth=1;shadow=0;dashed=0;align=center;html=1;shape=mxgraph.mockup.containers.browserWindow;rSize=0;strokeColor=#666666;strokeColor2=#008cff;strokeColor3=#c4c4c4;mainText=,;recursiveResize=0;" vertex="1" parent="1">
          <mxGeometry x="1361" y="1060" width="1120" height="1000" as="geometry" />
        </mxCell>
        <mxCell id="rDIyfeDL_a6o-o4ALh9H-2" value="Page 1" style="strokeWidth=1;shadow=0;dashed=0;align=center;html=1;shape=mxgraph.mockup.containers.anchor;fontSize=17;fontColor=#666666;align=left;whiteSpace=wrap;" vertex="1" parent="rDIyfeDL_a6o-o4ALh9H-1">
          <mxGeometry x="60" y="12" width="110" height="26" as="geometry" />
        </mxCell>
        <mxCell id="rDIyfeDL_a6o-o4ALh9H-3" value="https://www.draw.io" style="strokeWidth=1;shadow=0;dashed=0;align=center;html=1;shape=mxgraph.mockup.containers.anchor;rSize=0;fontSize=17;fontColor=#666666;align=left;" vertex="1" parent="rDIyfeDL_a6o-o4ALh9H-1">
          <mxGeometry x="130" y="60" width="250" height="26" as="geometry" />
        </mxCell>
        <mxCell id="rDIyfeDL_a6o-o4ALh9H-4" value="" style="rounded=0;whiteSpace=wrap;html=1;" vertex="1" parent="rDIyfeDL_a6o-o4ALh9H-1">
          <mxGeometry y="110" width="1120" height="60" as="geometry" />
        </mxCell>
        <mxCell id="rDIyfeDL_a6o-o4ALh9H-5" value="" style="rounded=0;whiteSpace=wrap;html=1;" vertex="1" parent="rDIyfeDL_a6o-o4ALh9H-1">
          <mxGeometry y="110" width="120" height="60" as="geometry" />
        </mxCell>
        <mxCell id="rDIyfeDL_a6o-o4ALh9H-6" value="" style="endArrow=none;html=1;rounded=0;entryX=1;entryY=0;entryDx=0;entryDy=0;exitX=0;exitY=1;exitDx=0;exitDy=0;" edge="1" parent="rDIyfeDL_a6o-o4ALh9H-1" source="rDIyfeDL_a6o-o4ALh9H-5" target="rDIyfeDL_a6o-o4ALh9H-5">
          <mxGeometry width="50" height="50" relative="1" as="geometry">
            <mxPoint x="450" y="290" as="sourcePoint" />
            <mxPoint x="500" y="240" as="targetPoint" />
          </mxGeometry>
        </mxCell>
        <mxCell id="rDIyfeDL_a6o-o4ALh9H-7" value="" style="endArrow=none;html=1;rounded=0;entryX=0;entryY=0;entryDx=0;entryDy=0;exitX=1;exitY=1;exitDx=0;exitDy=0;" edge="1" parent="rDIyfeDL_a6o-o4ALh9H-1" source="rDIyfeDL_a6o-o4ALh9H-5" target="rDIyfeDL_a6o-o4ALh9H-5">
          <mxGeometry width="50" height="50" relative="1" as="geometry">
            <mxPoint x="450" y="290" as="sourcePoint" />
            <mxPoint x="500" y="240" as="targetPoint" />
          </mxGeometry>
        </mxCell>
        <mxCell id="rDIyfeDL_a6o-o4ALh9H-8" value="Mua xe" style="text;html=1;align=center;verticalAlign=middle;whiteSpace=wrap;rounded=0;" vertex="1" parent="rDIyfeDL_a6o-o4ALh9H-1">
          <mxGeometry x="130" y="125" width="60" height="30" as="geometry" />
        </mxCell>
        <mxCell id="rDIyfeDL_a6o-o4ALh9H-9" value="Bán xe" style="text;html=1;align=center;verticalAlign=middle;whiteSpace=wrap;rounded=0;" vertex="1" parent="rDIyfeDL_a6o-o4ALh9H-1">
          <mxGeometry x="200" y="125" width="60" height="30" as="geometry" />
        </mxCell>
        <mxCell id="rDIyfeDL_a6o-o4ALh9H-10" value="Giới thiệu" style="text;html=1;align=center;verticalAlign=middle;whiteSpace=wrap;rounded=0;" vertex="1" parent="rDIyfeDL_a6o-o4ALh9H-1">
          <mxGeometry x="270" y="125" width="60" height="30" as="geometry" />
        </mxCell>
        <mxCell id="rDIyfeDL_a6o-o4ALh9H-11" value="Tin tức" style="text;html=1;align=center;verticalAlign=middle;whiteSpace=wrap;rounded=0;" vertex="1" parent="rDIyfeDL_a6o-o4ALh9H-1">
          <mxGeometry x="340" y="125" width="60" height="30" as="geometry" />
        </mxCell>
        <mxCell id="rDIyfeDL_a6o-o4ALh9H-12" value="Tài khoản" style="text;html=1;align=center;verticalAlign=middle;whiteSpace=wrap;rounded=0;" vertex="1" parent="rDIyfeDL_a6o-o4ALh9H-1">
          <mxGeometry x="1040" y="125" width="60" height="30" as="geometry" />
        </mxCell>
        <mxCell id="rDIyfeDL_a6o-o4ALh9H-13" value="0938119439" style="text;html=1;align=center;verticalAlign=middle;whiteSpace=wrap;rounded=0;" vertex="1" parent="rDIyfeDL_a6o-o4ALh9H-1">
          <mxGeometry x="950" y="125" width="60" height="30" as="geometry" />
        </mxCell>
        <mxCell id="rDIyfeDL_a6o-o4ALh9H-14" value="" style="shape=mxgraph.signs.tech.telephone_1;html=1;pointerEvents=1;fillColor=#000000;strokeColor=none;verticalLabelPosition=bottom;verticalAlign=top;align=center;" vertex="1" parent="rDIyfeDL_a6o-o4ALh9H-1">
          <mxGeometry x="930" y="125" width="12" height="30" as="geometry" />
        </mxCell>
        <mxCell id="rDIyfeDL_a6o-o4ALh9H-15" value="" style="endArrow=none;html=1;rounded=0;entryX=0;entryY=0;entryDx=0;entryDy=0;" edge="1" parent="rDIyfeDL_a6o-o4ALh9H-1" source="rDIyfeDL_a6o-o4ALh9H-1">
          <mxGeometry width="50" height="50" relative="1" as="geometry">
            <mxPoint x="490" y="420" as="sourcePoint" />
            <mxPoint y="210" as="targetPoint" />
          </mxGeometry>
        </mxCell>
        <mxCell id="rDIyfeDL_a6o-o4ALh9H-16" value="" style="rounded=0;whiteSpace=wrap;html=1;" vertex="1" parent="rDIyfeDL_a6o-o4ALh9H-1">
          <mxGeometry x="202" y="300" width="740" height="560" as="geometry" />
        </mxCell>
        <mxCell id="rDIyfeDL_a6o-o4ALh9H-17" value="&lt;font style=&quot;font-size: 20px;&quot;&gt;Đăng ký&lt;/font&gt;" style="text;html=1;align=center;verticalAlign=middle;whiteSpace=wrap;rounded=0;" vertex="1" parent="rDIyfeDL_a6o-o4ALh9H-1">
          <mxGeometry x="507" y="360" width="130" height="30" as="geometry" />
        </mxCell>
        <mxCell id="rDIyfeDL_a6o-o4ALh9H-18" value="" style="rounded=0;whiteSpace=wrap;html=1;" vertex="1" parent="rDIyfeDL_a6o-o4ALh9H-1">
          <mxGeometry x="495" y="410" width="301" height="60" as="geometry" />
        </mxCell>
        <mxCell id="rDIyfeDL_a6o-o4ALh9H-19" value="" style="rounded=0;whiteSpace=wrap;html=1;" vertex="1" parent="rDIyfeDL_a6o-o4ALh9H-1">
          <mxGeometry x="495" y="590" width="301" height="60" as="geometry" />
        </mxCell>
        <mxCell id="rDIyfeDL_a6o-o4ALh9H-20" value="&lt;font style=&quot;font-size: 16px;&quot;&gt;Đã có tài khoản? Đăng nhập ngay&lt;/font&gt;" style="text;html=1;align=center;verticalAlign=middle;whiteSpace=wrap;rounded=0;" vertex="1" parent="rDIyfeDL_a6o-o4ALh9H-1">
          <mxGeometry x="340" y="770" width="580" height="30" as="geometry" />
        </mxCell>
        <mxCell id="rDIyfeDL_a6o-o4ALh9H-21" value="&lt;font style=&quot;font-size: 20px;&quot;&gt;Đăng ký&lt;/font&gt;" style="rounded=0;whiteSpace=wrap;html=1;" vertex="1" parent="rDIyfeDL_a6o-o4ALh9H-1">
          <mxGeometry x="495" y="680" width="301" height="60" as="geometry" />
        </mxCell>
        <mxCell id="rDIyfeDL_a6o-o4ALh9H-22" value="" style="rounded=0;whiteSpace=wrap;html=1;" vertex="1" parent="rDIyfeDL_a6o-o4ALh9H-1">
          <mxGeometry x="495" y="500" width="301" height="60" as="geometry" />
        </mxCell>
        <mxCell id="rDIyfeDL_a6o-o4ALh9H-23" value="&lt;font style=&quot;font-size: 20px;&quot;&gt;Số điện thoại&lt;/font&gt;" style="text;html=1;align=left;verticalAlign=middle;whiteSpace=wrap;rounded=0;" vertex="1" parent="rDIyfeDL_a6o-o4ALh9H-1">
          <mxGeometry x="310" y="425" width="130" height="30" as="geometry" />
        </mxCell>
        <mxCell id="rDIyfeDL_a6o-o4ALh9H-24" value="&lt;font style=&quot;font-size: 20px;&quot;&gt;Mật khẩu&amp;nbsp;&lt;/font&gt;" style="text;html=1;align=left;verticalAlign=middle;whiteSpace=wrap;rounded=0;" vertex="1" parent="rDIyfeDL_a6o-o4ALh9H-1">
          <mxGeometry x="310" y="515" width="130" height="30" as="geometry" />
        </mxCell>
        <mxCell id="rDIyfeDL_a6o-o4ALh9H-26" style="edgeStyle=orthogonalEdgeStyle;rounded=0;orthogonalLoop=1;jettySize=auto;html=1;exitX=0.5;exitY=1;exitDx=0;exitDy=0;" edge="1" parent="rDIyfeDL_a6o-o4ALh9H-1" source="rDIyfeDL_a6o-o4ALh9H-24" target="rDIyfeDL_a6o-o4ALh9H-24">
          <mxGeometry relative="1" as="geometry" />
        </mxCell>
        <mxCell id="rDIyfeDL_a6o-o4ALh9H-25" value="&lt;font style=&quot;font-size: 20px;&quot;&gt;Nhập lại mật khẩu&lt;/font&gt;" style="text;html=1;align=left;verticalAlign=middle;whiteSpace=wrap;rounded=0;" vertex="1" parent="rDIyfeDL_a6o-o4ALh9H-1">
          <mxGeometry x="310" y="605" width="169" height="30" as="geometry" />
        </mxCell>
        <mxCell id="rDIyfeDL_a6o-o4ALh9H-28" value="" style="strokeWidth=1;shadow=0;dashed=0;align=center;html=1;shape=mxgraph.mockup.containers.browserWindow;rSize=0;strokeColor=#666666;strokeColor2=#008cff;strokeColor3=#c4c4c4;mainText=,;recursiveResize=0;" vertex="1" parent="1">
          <mxGeometry y="1360" width="1120" height="1000" as="geometry" />
        </mxCell>
        <mxCell id="rDIyfeDL_a6o-o4ALh9H-29" value="Page 1" style="strokeWidth=1;shadow=0;dashed=0;align=center;html=1;shape=mxgraph.mockup.containers.anchor;fontSize=17;fontColor=#666666;align=left;whiteSpace=wrap;" vertex="1" parent="rDIyfeDL_a6o-o4ALh9H-28">
          <mxGeometry x="60" y="12" width="110" height="26" as="geometry" />
        </mxCell>
        <mxCell id="rDIyfeDL_a6o-o4ALh9H-30" value="https://www.draw.io" style="strokeWidth=1;shadow=0;dashed=0;align=center;html=1;shape=mxgraph.mockup.containers.anchor;rSize=0;fontSize=17;fontColor=#666666;align=left;" vertex="1" parent="rDIyfeDL_a6o-o4ALh9H-28">
          <mxGeometry x="130" y="60" width="250" height="26" as="geometry" />
        </mxCell>
        <mxCell id="rDIyfeDL_a6o-o4ALh9H-31" value="" style="rounded=0;whiteSpace=wrap;html=1;" vertex="1" parent="rDIyfeDL_a6o-o4ALh9H-28">
          <mxGeometry y="110" width="1120" height="60" as="geometry" />
        </mxCell>
        <mxCell id="rDIyfeDL_a6o-o4ALh9H-32" value="" style="rounded=0;whiteSpace=wrap;html=1;" vertex="1" parent="rDIyfeDL_a6o-o4ALh9H-28">
          <mxGeometry y="110" width="120" height="60" as="geometry" />
        </mxCell>
        <mxCell id="rDIyfeDL_a6o-o4ALh9H-33" value="" style="endArrow=none;html=1;rounded=0;entryX=1;entryY=0;entryDx=0;entryDy=0;exitX=0;exitY=1;exitDx=0;exitDy=0;" edge="1" parent="rDIyfeDL_a6o-o4ALh9H-28" source="rDIyfeDL_a6o-o4ALh9H-32" target="rDIyfeDL_a6o-o4ALh9H-32">
          <mxGeometry width="50" height="50" relative="1" as="geometry">
            <mxPoint x="450" y="290" as="sourcePoint" />
            <mxPoint x="500" y="240" as="targetPoint" />
          </mxGeometry>
        </mxCell>
        <mxCell id="rDIyfeDL_a6o-o4ALh9H-34" value="" style="endArrow=none;html=1;rounded=0;entryX=0;entryY=0;entryDx=0;entryDy=0;exitX=1;exitY=1;exitDx=0;exitDy=0;" edge="1" parent="rDIyfeDL_a6o-o4ALh9H-28" source="rDIyfeDL_a6o-o4ALh9H-32" target="rDIyfeDL_a6o-o4ALh9H-32">
          <mxGeometry width="50" height="50" relative="1" as="geometry">
            <mxPoint x="450" y="290" as="sourcePoint" />
            <mxPoint x="500" y="240" as="targetPoint" />
          </mxGeometry>
        </mxCell>
        <mxCell id="rDIyfeDL_a6o-o4ALh9H-35" value="Mua xe" style="text;html=1;align=center;verticalAlign=middle;whiteSpace=wrap;rounded=0;" vertex="1" parent="rDIyfeDL_a6o-o4ALh9H-28">
          <mxGeometry x="130" y="125" width="60" height="30" as="geometry" />
        </mxCell>
        <mxCell id="rDIyfeDL_a6o-o4ALh9H-36" value="Bán xe" style="text;html=1;align=center;verticalAlign=middle;whiteSpace=wrap;rounded=0;" vertex="1" parent="rDIyfeDL_a6o-o4ALh9H-28">
          <mxGeometry x="200" y="125" width="60" height="30" as="geometry" />
        </mxCell>
        <mxCell id="rDIyfeDL_a6o-o4ALh9H-37" value="Giới thiệu" style="text;html=1;align=center;verticalAlign=middle;whiteSpace=wrap;rounded=0;" vertex="1" parent="rDIyfeDL_a6o-o4ALh9H-28">
          <mxGeometry x="270" y="125" width="60" height="30" as="geometry" />
        </mxCell>
        <mxCell id="rDIyfeDL_a6o-o4ALh9H-38" value="Tin tức" style="text;html=1;align=center;verticalAlign=middle;whiteSpace=wrap;rounded=0;" vertex="1" parent="rDIyfeDL_a6o-o4ALh9H-28">
          <mxGeometry x="340" y="125" width="60" height="30" as="geometry" />
        </mxCell>
        <mxCell id="rDIyfeDL_a6o-o4ALh9H-39" value="Tài khoản" style="text;html=1;align=center;verticalAlign=middle;whiteSpace=wrap;rounded=0;" vertex="1" parent="rDIyfeDL_a6o-o4ALh9H-28">
          <mxGeometry x="1040" y="125" width="60" height="30" as="geometry" />
        </mxCell>
        <mxCell id="rDIyfeDL_a6o-o4ALh9H-40" value="0938119439" style="text;html=1;align=center;verticalAlign=middle;whiteSpace=wrap;rounded=0;" vertex="1" parent="rDIyfeDL_a6o-o4ALh9H-28">
          <mxGeometry x="950" y="125" width="60" height="30" as="geometry" />
        </mxCell>
        <mxCell id="rDIyfeDL_a6o-o4ALh9H-41" value="" style="shape=mxgraph.signs.tech.telephone_1;html=1;pointerEvents=1;fillColor=#000000;strokeColor=none;verticalLabelPosition=bottom;verticalAlign=top;align=center;" vertex="1" parent="rDIyfeDL_a6o-o4ALh9H-28">
          <mxGeometry x="930" y="125" width="12" height="30" as="geometry" />
        </mxCell>
        <mxCell id="rDIyfeDL_a6o-o4ALh9H-42" value="" style="endArrow=none;html=1;rounded=0;entryX=0;entryY=0;entryDx=0;entryDy=0;" edge="1" parent="rDIyfeDL_a6o-o4ALh9H-28" source="rDIyfeDL_a6o-o4ALh9H-28">
          <mxGeometry width="50" height="50" relative="1" as="geometry">
            <mxPoint x="490" y="420" as="sourcePoint" />
            <mxPoint y="210" as="targetPoint" />
          </mxGeometry>
        </mxCell>
        <mxCell id="rDIyfeDL_a6o-o4ALh9H-43" value="" style="rounded=0;whiteSpace=wrap;html=1;" vertex="1" parent="rDIyfeDL_a6o-o4ALh9H-28">
          <mxGeometry x="202" y="300" width="740" height="560" as="geometry" />
        </mxCell>
        <mxCell id="rDIyfeDL_a6o-o4ALh9H-52" style="edgeStyle=orthogonalEdgeStyle;rounded=0;orthogonalLoop=1;jettySize=auto;html=1;exitX=0.5;exitY=1;exitDx=0;exitDy=0;" edge="1" parent="rDIyfeDL_a6o-o4ALh9H-28">
          <mxGeometry relative="1" as="geometry">
            <mxPoint x="375" y="545" as="sourcePoint" />
            <mxPoint x="375" y="545" as="targetPoint" />
          </mxGeometry>
        </mxCell>
        <mxCell id="rDIyfeDL_a6o-o4ALh9H-54" value="" style="rounded=1;whiteSpace=wrap;html=1;" vertex="1" parent="rDIyfeDL_a6o-o4ALh9H-28">
          <mxGeometry x="257" y="510" width="630" height="240" as="geometry" />
        </mxCell>
        <mxCell id="rDIyfeDL_a6o-o4ALh9H-55" value="&lt;font style=&quot;font-size: 20px;&quot;&gt;Gửi&lt;/font&gt;" style="rounded=0;whiteSpace=wrap;html=1;" vertex="1" parent="rDIyfeDL_a6o-o4ALh9H-28">
          <mxGeometry x="620" y="780" width="120" height="60" as="geometry" />
        </mxCell>
        <mxCell id="rDIyfeDL_a6o-o4ALh9H-56" value="" style="strokeWidth=1;shadow=0;dashed=0;align=center;html=1;shape=mxgraph.mockup.containers.browserWindow;rSize=0;strokeColor=#666666;strokeColor2=#008cff;strokeColor3=#c4c4c4;mainText=,;recursiveResize=0;" vertex="1" parent="1">
          <mxGeometry y="2440" width="1120" height="1000" as="geometry" />
        </mxCell>
        <mxCell id="rDIyfeDL_a6o-o4ALh9H-57" value="Page 1" style="strokeWidth=1;shadow=0;dashed=0;align=center;html=1;shape=mxgraph.mockup.containers.anchor;fontSize=17;fontColor=#666666;align=left;whiteSpace=wrap;" vertex="1" parent="rDIyfeDL_a6o-o4ALh9H-56">
          <mxGeometry x="60" y="12" width="110" height="26" as="geometry" />
        </mxCell>
        <mxCell id="rDIyfeDL_a6o-o4ALh9H-58" value="https://www.draw.io" style="strokeWidth=1;shadow=0;dashed=0;align=center;html=1;shape=mxgraph.mockup.containers.anchor;rSize=0;fontSize=17;fontColor=#666666;align=left;" vertex="1" parent="rDIyfeDL_a6o-o4ALh9H-56">
          <mxGeometry x="130" y="60" width="250" height="26" as="geometry" />
        </mxCell>
        <mxCell id="rDIyfeDL_a6o-o4ALh9H-59" value="" style="rounded=0;whiteSpace=wrap;html=1;" vertex="1" parent="rDIyfeDL_a6o-o4ALh9H-56">
          <mxGeometry y="110" width="1120" height="60" as="geometry" />
        </mxCell>
        <mxCell id="rDIyfeDL_a6o-o4ALh9H-60" value="" style="rounded=0;whiteSpace=wrap;html=1;" vertex="1" parent="rDIyfeDL_a6o-o4ALh9H-56">
          <mxGeometry y="110" width="120" height="60" as="geometry" />
        </mxCell>
        <mxCell id="rDIyfeDL_a6o-o4ALh9H-61" value="" style="endArrow=none;html=1;rounded=0;entryX=1;entryY=0;entryDx=0;entryDy=0;exitX=0;exitY=1;exitDx=0;exitDy=0;" edge="1" parent="rDIyfeDL_a6o-o4ALh9H-56" source="rDIyfeDL_a6o-o4ALh9H-60" target="rDIyfeDL_a6o-o4ALh9H-60">
          <mxGeometry width="50" height="50" relative="1" as="geometry">
            <mxPoint x="450" y="290" as="sourcePoint" />
            <mxPoint x="500" y="240" as="targetPoint" />
          </mxGeometry>
        </mxCell>
        <mxCell id="rDIyfeDL_a6o-o4ALh9H-62" value="" style="endArrow=none;html=1;rounded=0;entryX=0;entryY=0;entryDx=0;entryDy=0;exitX=1;exitY=1;exitDx=0;exitDy=0;" edge="1" parent="rDIyfeDL_a6o-o4ALh9H-56" source="rDIyfeDL_a6o-o4ALh9H-60" target="rDIyfeDL_a6o-o4ALh9H-60">
          <mxGeometry width="50" height="50" relative="1" as="geometry">
            <mxPoint x="450" y="290" as="sourcePoint" />
            <mxPoint x="500" y="240" as="targetPoint" />
          </mxGeometry>
        </mxCell>
        <mxCell id="rDIyfeDL_a6o-o4ALh9H-63" value="Mua xe" style="text;html=1;align=center;verticalAlign=middle;whiteSpace=wrap;rounded=0;" vertex="1" parent="rDIyfeDL_a6o-o4ALh9H-56">
          <mxGeometry x="130" y="125" width="60" height="30" as="geometry" />
        </mxCell>
        <mxCell id="rDIyfeDL_a6o-o4ALh9H-64" value="Bán xe" style="text;html=1;align=center;verticalAlign=middle;whiteSpace=wrap;rounded=0;" vertex="1" parent="rDIyfeDL_a6o-o4ALh9H-56">
          <mxGeometry x="200" y="125" width="60" height="30" as="geometry" />
        </mxCell>
        <mxCell id="rDIyfeDL_a6o-o4ALh9H-65" value="Giới thiệu" style="text;html=1;align=center;verticalAlign=middle;whiteSpace=wrap;rounded=0;" vertex="1" parent="rDIyfeDL_a6o-o4ALh9H-56">
          <mxGeometry x="270" y="125" width="60" height="30" as="geometry" />
        </mxCell>
        <mxCell id="rDIyfeDL_a6o-o4ALh9H-66" value="Tin tức" style="text;html=1;align=center;verticalAlign=middle;whiteSpace=wrap;rounded=0;" vertex="1" parent="rDIyfeDL_a6o-o4ALh9H-56">
          <mxGeometry x="340" y="125" width="60" height="30" as="geometry" />
        </mxCell>
        <mxCell id="rDIyfeDL_a6o-o4ALh9H-67" value="Tài khoản" style="text;html=1;align=center;verticalAlign=middle;whiteSpace=wrap;rounded=0;" vertex="1" parent="rDIyfeDL_a6o-o4ALh9H-56">
          <mxGeometry x="1040" y="125" width="60" height="30" as="geometry" />
        </mxCell>
        <mxCell id="rDIyfeDL_a6o-o4ALh9H-68" value="0938119439" style="text;html=1;align=center;verticalAlign=middle;whiteSpace=wrap;rounded=0;" vertex="1" parent="rDIyfeDL_a6o-o4ALh9H-56">
          <mxGeometry x="950" y="125" width="60" height="30" as="geometry" />
        </mxCell>
        <mxCell id="rDIyfeDL_a6o-o4ALh9H-69" value="" style="shape=mxgraph.signs.tech.telephone_1;html=1;pointerEvents=1;fillColor=#000000;strokeColor=none;verticalLabelPosition=bottom;verticalAlign=top;align=center;" vertex="1" parent="rDIyfeDL_a6o-o4ALh9H-56">
          <mxGeometry x="930" y="125" width="12" height="30" as="geometry" />
        </mxCell>
        <mxCell id="rDIyfeDL_a6o-o4ALh9H-70" value="" style="endArrow=none;html=1;rounded=0;entryX=0;entryY=0;entryDx=0;entryDy=0;" edge="1" parent="rDIyfeDL_a6o-o4ALh9H-56" source="rDIyfeDL_a6o-o4ALh9H-56">
          <mxGeometry width="50" height="50" relative="1" as="geometry">
            <mxPoint x="490" y="420" as="sourcePoint" />
            <mxPoint y="210" as="targetPoint" />
          </mxGeometry>
        </mxCell>
        <mxCell id="rDIyfeDL_a6o-o4ALh9H-72" style="edgeStyle=orthogonalEdgeStyle;rounded=0;orthogonalLoop=1;jettySize=auto;html=1;exitX=0.5;exitY=1;exitDx=0;exitDy=0;" edge="1" parent="rDIyfeDL_a6o-o4ALh9H-56">
          <mxGeometry relative="1" as="geometry">
            <mxPoint x="375" y="545" as="sourcePoint" />
            <mxPoint x="375" y="545" as="targetPoint" />
          </mxGeometry>
        </mxCell>
      </root>
    </mxGraphModel>
  </diagram>
  <diagram id="NnzWywYh2ei-s3pJg3TY" name="Trang-3">
    <mxGraphModel dx="1027" dy="459" grid="1" gridSize="10" guides="1" tooltips="1" connect="1" arrows="1" fold="1" page="1" pageScale="1" pageWidth="827" pageHeight="1169" math="0" shadow="0">
      <root>
        <mxCell id="0" />
        <mxCell id="1" parent="0" />
        <mxCell id="RcXaJ-hQtHV1DOgfMRlg-4" value="" style="edgeStyle=orthogonalEdgeStyle;rounded=0;orthogonalLoop=1;jettySize=auto;html=1;" parent="1" source="vzGPlbtiOxRAUxvw7N9j-9" target="RcXaJ-hQtHV1DOgfMRlg-3" edge="1">
          <mxGeometry relative="1" as="geometry" />
        </mxCell>
        <mxCell id="vzGPlbtiOxRAUxvw7N9j-9" value="&lt;span style=&quot;font-family: &amp;quot;Times New Roman&amp;quot;, serif; font-size: 16px;&quot;&gt;Line sensors&lt;/span&gt;" style="whiteSpace=wrap;html=1;" parent="1" vertex="1">
          <mxGeometry x="275" y="30" width="130" height="60" as="geometry" />
        </mxCell>
        <mxCell id="vFtFIZWMYnfrf9Z__YzG-19" value="" style="edgeStyle=orthogonalEdgeStyle;rounded=0;orthogonalLoop=1;jettySize=auto;html=1;" parent="1" source="vFtFIZWMYnfrf9Z__YzG-11" target="vFtFIZWMYnfrf9Z__YzG-18" edge="1">
          <mxGeometry relative="1" as="geometry" />
        </mxCell>
        <mxCell id="vFtFIZWMYnfrf9Z__YzG-11" value="Measure distance" style="rounded=0;whiteSpace=wrap;html=1;" parent="1" vertex="1">
          <mxGeometry x="340" y="780" width="120" height="40" as="geometry" />
        </mxCell>
        <mxCell id="vFtFIZWMYnfrf9Z__YzG-18" value="End" style="ellipse;whiteSpace=wrap;html=1;" parent="1" vertex="1">
          <mxGeometry x="360" y="840" width="80" height="50" as="geometry" />
        </mxCell>
        <mxCell id="RcXaJ-hQtHV1DOgfMRlg-6" value="" style="edgeStyle=orthogonalEdgeStyle;rounded=0;orthogonalLoop=1;jettySize=auto;html=1;" parent="1" source="RcXaJ-hQtHV1DOgfMRlg-3" target="RcXaJ-hQtHV1DOgfMRlg-5" edge="1">
          <mxGeometry relative="1" as="geometry" />
        </mxCell>
        <mxCell id="RcXaJ-hQtHV1DOgfMRlg-3" value="&lt;span style=&quot;font-size: 16px;&quot;&gt;Microcontroller&lt;/span&gt;" style="whiteSpace=wrap;html=1;" parent="1" vertex="1">
          <mxGeometry x="275" y="110" width="130" height="60" as="geometry" />
        </mxCell>
        <mxCell id="RcXaJ-hQtHV1DOgfMRlg-8" value="" style="edgeStyle=orthogonalEdgeStyle;rounded=0;orthogonalLoop=1;jettySize=auto;html=1;" parent="1" source="RcXaJ-hQtHV1DOgfMRlg-5" target="RcXaJ-hQtHV1DOgfMRlg-7" edge="1">
          <mxGeometry relative="1" as="geometry" />
        </mxCell>
        <mxCell id="RcXaJ-hQtHV1DOgfMRlg-10" value="" style="edgeStyle=orthogonalEdgeStyle;rounded=0;orthogonalLoop=1;jettySize=auto;html=1;" parent="1" source="RcXaJ-hQtHV1DOgfMRlg-5" target="RcXaJ-hQtHV1DOgfMRlg-9" edge="1">
          <mxGeometry relative="1" as="geometry" />
        </mxCell>
        <mxCell id="RcXaJ-hQtHV1DOgfMRlg-14" value="" style="edgeStyle=orthogonalEdgeStyle;rounded=0;orthogonalLoop=1;jettySize=auto;html=1;" parent="1" source="RcXaJ-hQtHV1DOgfMRlg-5" target="RcXaJ-hQtHV1DOgfMRlg-13" edge="1">
          <mxGeometry relative="1" as="geometry" />
        </mxCell>
        <mxCell id="RcXaJ-hQtHV1DOgfMRlg-16" value="" style="edgeStyle=orthogonalEdgeStyle;rounded=0;orthogonalLoop=1;jettySize=auto;html=1;" parent="1" source="RcXaJ-hQtHV1DOgfMRlg-5" target="RcXaJ-hQtHV1DOgfMRlg-13" edge="1">
          <mxGeometry relative="1" as="geometry" />
        </mxCell>
        <mxCell id="RcXaJ-hQtHV1DOgfMRlg-17" value="" style="edgeStyle=orthogonalEdgeStyle;rounded=0;orthogonalLoop=1;jettySize=auto;html=1;" parent="1" source="RcXaJ-hQtHV1DOgfMRlg-5" target="RcXaJ-hQtHV1DOgfMRlg-13" edge="1">
          <mxGeometry relative="1" as="geometry" />
        </mxCell>
        <mxCell id="RcXaJ-hQtHV1DOgfMRlg-18" value="" style="edgeStyle=orthogonalEdgeStyle;rounded=0;orthogonalLoop=1;jettySize=auto;html=1;" parent="1" source="RcXaJ-hQtHV1DOgfMRlg-5" target="RcXaJ-hQtHV1DOgfMRlg-9" edge="1">
          <mxGeometry relative="1" as="geometry" />
        </mxCell>
        <mxCell id="RcXaJ-hQtHV1DOgfMRlg-19" value="" style="edgeStyle=orthogonalEdgeStyle;rounded=0;orthogonalLoop=1;jettySize=auto;html=1;" parent="1" source="RcXaJ-hQtHV1DOgfMRlg-5" target="RcXaJ-hQtHV1DOgfMRlg-9" edge="1">
          <mxGeometry relative="1" as="geometry" />
        </mxCell>
        <mxCell id="RcXaJ-hQtHV1DOgfMRlg-22" style="edgeStyle=orthogonalEdgeStyle;rounded=0;orthogonalLoop=1;jettySize=auto;html=1;entryX=0.5;entryY=0;entryDx=0;entryDy=0;" parent="1" source="RcXaJ-hQtHV1DOgfMRlg-5" target="RcXaJ-hQtHV1DOgfMRlg-21" edge="1">
          <mxGeometry relative="1" as="geometry" />
        </mxCell>
        <mxCell id="RcXaJ-hQtHV1DOgfMRlg-5" value="&lt;span style=&quot;font-family: &amp;quot;Times New Roman&amp;quot;, serif; font-size: 16px;&quot;&gt;Amplifier circuit&lt;/span&gt;" style="whiteSpace=wrap;html=1;" parent="1" vertex="1">
          <mxGeometry x="280" y="250" width="120" height="60" as="geometry" />
        </mxCell>
        <mxCell id="RcXaJ-hQtHV1DOgfMRlg-7" value="&lt;span style=&quot;font-size: 12pt; line-height: 115%; font-family: &amp;quot;Times New Roman&amp;quot;, serif;&quot; lang=&quot;VI&quot;&gt;Left motor 1&lt;/span&gt;" style="whiteSpace=wrap;html=1;" parent="1" vertex="1">
          <mxGeometry x="40" y="420" width="120" height="60" as="geometry" />
        </mxCell>
        <mxCell id="RcXaJ-hQtHV1DOgfMRlg-9" value="&lt;span style=&quot;font-size: 12pt; line-height: 115%; font-family: &amp;quot;Times New Roman&amp;quot;, serif;&quot; lang=&quot;VI&quot;&gt;Left motor 2&lt;/span&gt;" style="whiteSpace=wrap;html=1;" parent="1" vertex="1">
          <mxGeometry x="200" y="420" width="120" height="60" as="geometry" />
        </mxCell>
        <mxCell id="RcXaJ-hQtHV1DOgfMRlg-13" value="&lt;span style=&quot;font-size: 12pt; line-height: 115%; font-family: &amp;quot;Times New Roman&amp;quot;, serif;&quot; lang=&quot;VI&quot;&gt;Right motor 1&lt;/span&gt;" style="whiteSpace=wrap;html=1;" parent="1" vertex="1">
          <mxGeometry x="360" y="420" width="120" height="60" as="geometry" />
        </mxCell>
        <mxCell id="RcXaJ-hQtHV1DOgfMRlg-21" value="&lt;span style=&quot;font-size: 12pt; line-height: 115%; font-family: &amp;quot;Times New Roman&amp;quot;, serif;&quot; lang=&quot;VI&quot;&gt;Right motor 2&lt;/span&gt;" style="whiteSpace=wrap;html=1;" parent="1" vertex="1">
          <mxGeometry x="520" y="420" width="120" height="60" as="geometry" />
        </mxCell>
      </root>
    </mxGraphModel>
  </diagram>
  <diagram id="yvJLHJ2hsCohOOvrDUeh" name="Trang-4">
    <mxGraphModel dx="997" dy="503" grid="1" gridSize="10" guides="1" tooltips="1" connect="1" arrows="1" fold="1" page="1" pageScale="1" pageWidth="827" pageHeight="1169" math="0" shadow="0">
      <root>
        <mxCell id="0" />
        <mxCell id="1" parent="0" />
      </root>
    </mxGraphModel>
  </diagram>
</mxfile>
